<svg xmlns="http://www.w3.org/2000/svg" version="1.1" xmlns:xlink="http://www.w3.org/1999/xlink" xmlns:svgjs="http://svgjs.dev/svgjs" width="500" height="500" preserveAspectRatio="none" viewBox="0 0 500 500">
    <g mask="url(&quot;#SvgjsMask3207&quot;)" fill="none">
        <rect width="500" height="500" x="0" y="0" fill="url(&quot;#SvgjsLinearGradient3208&quot;)"></rect>
        <path d="M516.6666666666667 500L0 500 L0 122.11Q16.9 97.35, 41.66666666666667 114.25Q76.38 107.29, 83.33333333333334 142Q110.67 127.67, 125.00000000000001 155Q125.19 130.19, 150 130.37Q162.77 101.47, 191.66666666666669 114.24Q198.03 95.6, 216.66666666666669 101.96Q242 102.29, 241.66666666666669 127.63Q269.62 130.58, 266.6666666666667 158.54Q253.5 120.37, 291.6666666666667 107.2Q304.16 94.69, 316.6666666666667 107.19Q338.4 103.92, 341.6666666666667 125.65Q375.43 117.75, 383.33333333333337 151.51Q397.26 140.44, 408.33333333333337 154.37Q408.81 129.84, 433.33333333333337 130.32Q443.48 98.8, 475.00000000000006 108.95Q501.27 93.56, 516.6666666666667 119.83z" fill="rgba(87, 77, 90, 1)"></path>
        <path d="M533.3333333333335 500L0 500 L0 153.1Q45.32 156.76, 41.66666666666667 202.08Q42.04 160.79, 83.33333333333334 161.16Q98.3 134.46, 125.00000000000001 149.43Q158.87 141.64, 166.66666666666669 175.51Q181.82 148.99, 208.33333333333337 164.14Q240.5 154.64, 250.00000000000006 186.8Q271.92 183.72, 275.00000000000006 205.63Q278.6 184.22, 300.00000000000006 187.82Q302.59 165.41, 325.00000000000006 168Q340.63 141.96, 366.66666666666674 157.59Q399.98 149.24, 408.3333333333334 182.55Q422.48 155.03, 450.0000000000001 169.18Q459.15 136.67, 491.6666666666668 145.82Q517.63 130.11, 533.3333333333335 156.07z" fill="rgba(61, 4, 4, 1)"></path>
        <path d="M508.3333333333334 500L0 500 L0 219.75Q17.23 195.32, 41.66666666666667 212.55Q56.95 186.16, 83.33333333333334 201.44Q98.47 174.91, 125.00000000000001 190.04Q148.78 188.82, 150 212.59Q182.5 203.43, 191.66666666666669 235.93Q210.21 229.47, 216.66666666666669 248.01Q220.24 226.58, 241.66666666666669 230.15Q248.14 211.63, 266.6666666666667 218.1Q264.62 191.06, 291.6666666666667 189.01Q336.95 192.63, 333.33333333333337 237.92Q329.94 192.86, 375.00000000000006 189.46Q393.56 183.01, 400.00000000000006 201.57Q428.38 188.28, 441.66666666666674 216.66Q461.78 211.77, 466.66666666666674 231.88Q496.67 220.22, 508.3333333333334 250.22z" fill="rgba(57, 86, 72, 1)"></path>
        <path d="M516.6666666666667 500L0 500 L0 268.51Q14.35 257.86, 25 272.2Q31.85 237.38, 66.66666666666667 244.23Q82.22 218.11, 108.33333333333334 233.66Q143.27 226.93, 150 261.87Q177.98 248.18, 191.66666666666669 276.16Q209.27 268.76, 216.66666666666669 286.37Q223.92 251.96, 258.33333333333337 259.21Q258.65 234.52, 283.33333333333337 234.84Q322.27 248.78, 308.33333333333337 287.72Q303.55 257.94, 333.33333333333337 253.15Q336.09 230.91, 358.33333333333337 233.67Q372.3 222.64, 383.33333333333337 236.61Q422.3 233.91, 425.00000000000006 272.87Q439.76 245.97, 466.66666666666674 260.73Q466.68 235.74, 491.66666666666674 235.75Q532.33 251.41, 516.6666666666667 292.07z" fill="rgba(84, 88, 15, 1)"></path>
        <path d="M508.3333333333334 500L0 500 L0 279.03Q30.56 284.59, 25 315.15Q56.22 304.7, 66.66666666666667 335.92Q81.04 325.3, 91.66666666666667 339.67Q92.54 298.88, 133.33333333333334 299.75Q149.04 273.79, 175 289.5Q207.8 280.63, 216.66666666666669 313.43Q236.5 308.26, 241.66666666666669 328.1Q259.53 320.96, 266.6666666666667 338.82Q266.95 314.11, 291.6666666666667 314.39Q306.17 287.23, 333.33333333333337 301.73Q335.03 278.43, 358.33333333333337 280.13Q384.57 264.7, 400.00000000000006 290.93Q424.72 290.65, 425.00000000000006 315.37Q439.87 288.58, 466.66666666666674 303.45Q482.1 277.22, 508.3333333333334 292.65z" fill="rgba(241, 255, 18, 1)"></path>
        <path d="M500.0000000000001 500L0 500 L0 325.31Q45.08 328.72, 41.66666666666667 373.8Q36.18 343.31, 66.66666666666667 337.82Q82.04 311.53, 108.33333333333334 326.9Q122.31 315.88, 133.33333333333334 329.85Q153.38 324.89, 158.33333333333334 344.94Q198.54 343.48, 200 383.69Q210.1 352.13, 241.66666666666669 362.23Q256.6 335.5, 283.33333333333337 350.43Q287.64 329.74, 308.33333333333337 334.04Q323.38 307.42, 350.00000000000006 322.47Q384.76 315.57, 391.66666666666674 350.33Q416.24 349.9, 416.66666666666674 374.48Q431.11 347.26, 458.3333333333334 361.7Q467.94 329.64, 500.0000000000001 339.25z" fill="rgba(180, 233, 212, 1)"></path>
        <path d="M533.3333333333335 500L0 500 L0 412.68Q18.76 389.77, 41.66666666666667 408.53Q56.7 381.9, 83.33333333333334 396.93Q115.3 387.23, 125.00000000000001 419.19Q129.29 381.81, 166.66666666666669 386.1Q180.57 358.33, 208.33333333333337 372.23Q230.95 369.85, 233.33333333333337 392.47Q271.27 388.74, 275.00000000000006 426.67Q285.42 395.43, 316.66666666666674 405.85Q313.15 377.33, 341.66666666666674 373.81Q362.33 352.8, 383.3333333333334 373.46Q406.57 371.69, 408.3333333333334 394.93Q442.7 387.63, 450.0000000000001 421.99Q465.63 395.96, 491.6666666666668 411.59Q490.72 368.97, 533.3333333333335 368.02z" fill="rgba(26, 192, 127, 1)"></path>
        <path d="M508.3333333333335 500L0 500 L0 428.51Q34.21 421.05, 41.66666666666667 455.26Q70.31 442.24, 83.33333333333334 470.88Q89.78 452.32, 108.33333333333334 458.77Q114.14 422.91, 150 428.71Q163.32 400.37, 191.66666666666669 413.69Q232.99 413.34, 233.33333333333337 454.66Q241.21 420.87, 275.00000000000006 428.74Q289.94 402.02, 316.66666666666674 416.96Q348.2 406.83, 358.3333333333334 438.36Q393.87 432.23, 400.0000000000001 467.76Q412.02 438.12, 441.6666666666668 450.14Q455.63 422.44, 483.3333333333335 436.4Q489.18 417.25, 508.3333333333335 423.09z" fill="rgba(16, 20, 61, 1)"></path>
        <path d="M525 500L0 500 L0 458.52Q17.1 450.62, 25 467.71Q43.76 461.47, 50 480.22Q85.41 473.96, 91.66666666666667 509.37Q91.81 467.84, 133.33333333333334 467.98Q149.06 458.71, 158.33333333333334 474.43Q187.7 462.13, 200 491.5Q222.6 489.1, 225 511.7Q225.93 470.97, 266.6666666666667 471.9Q271.64 451.87, 291.6666666666667 456.84Q327.69 467.87, 316.6666666666667 503.89Q315.01 477.23, 341.6666666666667 475.57Q349.1 458, 366.6666666666667 465.44Q399.39 473.16, 391.6666666666667 505.88Q417.75 490.29, 433.33333333333337 516.37Q433.8 491.84, 458.33333333333337 492.3Q459.63 468.6, 483.33333333333337 469.9Q498.54 443.44, 525 458.65z" fill="rgba(206, 29, 29, 1)"></path>
    </g>
    <defs>
        <mask id="SvgjsMask3207">
            <rect width="500" height="500" fill="#ffffff"></rect>
        </mask>
        <linearGradient x1="50%" y1="0%" x2="50%" y2="100%" gradientUnits="userSpaceOnUse" id="SvgjsLinearGradient3208">
            <stop stop-color="rgba(149, 141, 97, 1)" offset="0"></stop>
            <stop stop-color="rgba(4, 2, 8, 1)" offset="0.28"></stop>
        </linearGradient>
    </defs>
</svg>