<svg xmlns="http://www.w3.org/2000/svg" version="1.1" xmlns:xlink="http://www.w3.org/1999/xlink" xmlns:svgjs="http://svgjs.dev/svgjs" width="1440" height="560" preserveAspectRatio="none" viewBox="0 0 1440 560">
    <g mask="url(&quot;#SvgjsMask3311&quot;)" fill="none">
        <rect width="1440" height="560" x="0" y="0" fill="url(&quot;#SvgjsLinearGradient3312&quot;)"></rect>
        <use xlink:href="#SvgjsSymbol3319" x="0" y="0"></use>
        <use xlink:href="#SvgjsSymbol3319" x="720" y="0"></use>
    </g>
    <defs>
        <mask id="SvgjsMask3311">
            <rect width="1440" height="560" fill="#ffffff"></rect>
        </mask>
        <linearGradient x1="84.72%" y1="-39.29%" x2="15.28%" y2="139.29%" gradientUnits="userSpaceOnUse" id="SvgjsLinearGradient3312">
            <stop stop-color="rgba(14, 42, 71, 1)" offset="0.27"></stop>
            <stop stop-color="rgba(67, 144, 62, 1)" offset="0.91"></stop>
        </linearGradient>
        <path d="M-1 0 a1 1 0 1 0 2 0 a1 1 0 1 0 -2 0z" id="SvgjsPath3314"></path>
        <path d="M-3 0 a3 3 0 1 0 6 0 a3 3 0 1 0 -6 0z" id="SvgjsPath3318"></path>
        <path d="M-5 0 a5 5 0 1 0 10 0 a5 5 0 1 0 -10 0z" id="SvgjsPath3313"></path>
        <path d="M2 -2 L-2 2z" id="SvgjsPath3316"></path>
        <path d="M6 -6 L-6 6z" id="SvgjsPath3315"></path>
        <path d="M30 -30 L-30 30z" id="SvgjsPath3317"></path>
    </defs>
    <symbol id="SvgjsSymbol3319">
        <use xlink:href="#SvgjsPath3313" x="30" y="30" stroke="#1c538e"></use>
        <use xlink:href="#SvgjsPath3314" x="30" y="90" stroke="rgba(177, 241, 10, 1)"></use>
        <use xlink:href="#SvgjsPath3315" x="30" y="150" stroke="#1c538e"></use>
        <use xlink:href="#SvgjsPath3316" x="30" y="210" stroke="rgba(15, 70, 16, 1)"></use>
        <use xlink:href="#SvgjsPath3317" x="30" y="270" stroke="rgba(12, 2, 82, 1)" stroke-width="3"></use>
        <use xlink:href="#SvgjsPath3318" x="30" y="330" stroke="rgba(44, 148, 146, 1)"></use>
        <use xlink:href="#SvgjsPath3315" x="30" y="390" stroke="rgba(12, 2, 82, 1)"></use>
        <use xlink:href="#SvgjsPath3316" x="30" y="450" stroke="rgba(180, 21, 21, 1)"></use>
        <use xlink:href="#SvgjsPath3315" x="30" y="510" stroke="rgba(139, 124, 124, 1)"></use>
        <use xlink:href="#SvgjsPath3315" x="30" y="570" stroke="rgba(177, 241, 10, 1)"></use>
        <use xlink:href="#SvgjsPath3318" x="90" y="30" stroke="rgba(15, 70, 16, 1)"></use>
        <use xlink:href="#SvgjsPath3314" x="90" y="90" stroke="rgba(1, 173, 236, 1)"></use>
        <use xlink:href="#SvgjsPath3315" x="90" y="150" stroke="rgba(44, 148, 146, 1)"></use>
        <use xlink:href="#SvgjsPath3318" x="90" y="210" stroke="rgba(177, 241, 10, 1)"></use>
        <use xlink:href="#SvgjsPath3315" x="90" y="270" stroke="rgba(44, 148, 146, 1)"></use>
        <use xlink:href="#SvgjsPath3315" x="90" y="330" stroke="rgba(180, 21, 21, 1)"></use>
        <use xlink:href="#SvgjsPath3316" x="90" y="390" stroke="#1c538e"></use>
        <use xlink:href="#SvgjsPath3314" x="90" y="450" stroke="rgba(44, 148, 146, 1)"></use>
        <use xlink:href="#SvgjsPath3316" x="90" y="510" stroke="rgba(180, 21, 21, 1)"></use>
        <use xlink:href="#SvgjsPath3313" x="90" y="570" stroke="rgba(177, 241, 10, 1)"></use>
        <use xlink:href="#SvgjsPath3318" x="150" y="30" stroke="rgba(12, 2, 82, 1)"></use>
        <use xlink:href="#SvgjsPath3318" x="150" y="90" stroke="rgba(180, 21, 21, 1)"></use>
        <use xlink:href="#SvgjsPath3316" x="150" y="150" stroke="#1c538e"></use>
        <use xlink:href="#SvgjsPath3313" x="150" y="210" stroke="rgba(15, 70, 16, 1)"></use>
        <use xlink:href="#SvgjsPath3315" x="150" y="270" stroke="rgba(177, 241, 10, 1)"></use>
        <use xlink:href="#SvgjsPath3314" x="150" y="330" stroke="rgba(180, 21, 21, 1)"></use>
        <use xlink:href="#SvgjsPath3315" x="150" y="390" stroke="rgba(1, 173, 236, 1)"></use>
        <use xlink:href="#SvgjsPath3316" x="150" y="450" stroke="rgba(177, 241, 10, 1)"></use>
        <use xlink:href="#SvgjsPath3315" x="150" y="510" stroke="#1c538e"></use>
        <use xlink:href="#SvgjsPath3313" x="150" y="570" stroke="#1c538e"></use>
        <use xlink:href="#SvgjsPath3318" x="210" y="30" stroke="rgba(15, 70, 16, 1)"></use>
        <use xlink:href="#SvgjsPath3314" x="210" y="90" stroke="rgba(44, 148, 146, 1)"></use>
        <use xlink:href="#SvgjsPath3317" x="210" y="150" stroke="rgba(139, 124, 124, 1)" stroke-width="3"></use>
        <use xlink:href="#SvgjsPath3313" x="210" y="210" stroke="#1c538e"></use>
        <use xlink:href="#SvgjsPath3316" x="210" y="270" stroke="rgba(12, 2, 82, 1)"></use>
        <use xlink:href="#SvgjsPath3315" x="210" y="330" stroke="#1c538e"></use>
        <use xlink:href="#SvgjsPath3314" x="210" y="390" stroke="rgba(15, 70, 16, 1)"></use>
        <use xlink:href="#SvgjsPath3315" x="210" y="450" stroke="rgba(177, 241, 10, 1)"></use>
        <use xlink:href="#SvgjsPath3316" x="210" y="510" stroke="rgba(180, 21, 21, 1)"></use>
        <use xlink:href="#SvgjsPath3318" x="210" y="570" stroke="rgba(1, 173, 236, 1)"></use>
        <use xlink:href="#SvgjsPath3315" x="270" y="30" stroke="rgba(177, 241, 10, 1)"></use>
        <use xlink:href="#SvgjsPath3316" x="270" y="90" stroke="rgba(139, 124, 124, 1)"></use>
        <use xlink:href="#SvgjsPath3313" x="270" y="150" stroke="rgba(15, 70, 16, 1)"></use>
        <use xlink:href="#SvgjsPath3313" x="270" y="210" stroke="rgba(12, 2, 82, 1)"></use>
        <use xlink:href="#SvgjsPath3313" x="270" y="270" stroke="rgba(44, 148, 146, 1)"></use>
        <use xlink:href="#SvgjsPath3315" x="270" y="330" stroke="rgba(177, 241, 10, 1)"></use>
        <use xlink:href="#SvgjsPath3313" x="270" y="390" stroke="rgba(1, 173, 236, 1)"></use>
        <use xlink:href="#SvgjsPath3318" x="270" y="450" stroke="rgba(44, 148, 146, 1)"></use>
        <use xlink:href="#SvgjsPath3313" x="270" y="510" stroke="rgba(12, 2, 82, 1)"></use>
        <use xlink:href="#SvgjsPath3314" x="270" y="570" stroke="rgba(177, 241, 10, 1)"></use>
        <use xlink:href="#SvgjsPath3313" x="330" y="30" stroke="rgba(44, 148, 146, 1)"></use>
        <use xlink:href="#SvgjsPath3318" x="330" y="90" stroke="rgba(177, 241, 10, 1)"></use>
        <use xlink:href="#SvgjsPath3315" x="330" y="150" stroke="rgba(1, 173, 236, 1)"></use>
        <use xlink:href="#SvgjsPath3315" x="330" y="210" stroke="rgba(44, 148, 146, 1)"></use>
        <use xlink:href="#SvgjsPath3314" x="330" y="270" stroke="rgba(15, 70, 16, 1)"></use>
        <use xlink:href="#SvgjsPath3315" x="330" y="330" stroke="#1c538e"></use>
        <use xlink:href="#SvgjsPath3316" x="330" y="390" stroke="rgba(139, 124, 124, 1)"></use>
        <use xlink:href="#SvgjsPath3313" x="330" y="450" stroke="rgba(12, 2, 82, 1)"></use>
        <use xlink:href="#SvgjsPath3317" x="330" y="510" stroke="rgba(180, 21, 21, 1)" stroke-width="3"></use>
        <use xlink:href="#SvgjsPath3313" x="330" y="570" stroke="rgba(177, 241, 10, 1)"></use>
        <use xlink:href="#SvgjsPath3316" x="390" y="30" stroke="rgba(180, 21, 21, 1)"></use>
        <use xlink:href="#SvgjsPath3315" x="390" y="90" stroke="rgba(12, 2, 82, 1)"></use>
        <use xlink:href="#SvgjsPath3313" x="390" y="150" stroke="rgba(12, 2, 82, 1)"></use>
        <use xlink:href="#SvgjsPath3315" x="390" y="210" stroke="rgba(15, 70, 16, 1)"></use>
        <use xlink:href="#SvgjsPath3315" x="390" y="270" stroke="rgba(44, 148, 146, 1)"></use>
        <use xlink:href="#SvgjsPath3313" x="390" y="330" stroke="rgba(12, 2, 82, 1)"></use>
        <use xlink:href="#SvgjsPath3313" x="390" y="390" stroke="rgba(180, 21, 21, 1)"></use>
        <use xlink:href="#SvgjsPath3314" x="390" y="450" stroke="#1c538e"></use>
        <use xlink:href="#SvgjsPath3315" x="390" y="510" stroke="#1c538e"></use>
        <use xlink:href="#SvgjsPath3313" x="390" y="570" stroke="rgba(44, 148, 146, 1)"></use>
        <use xlink:href="#SvgjsPath3315" x="450" y="30" stroke="rgba(44, 148, 146, 1)"></use>
        <use xlink:href="#SvgjsPath3318" x="450" y="90" stroke="rgba(180, 21, 21, 1)"></use>
        <use xlink:href="#SvgjsPath3315" x="450" y="150" stroke="#1c538e"></use>
        <use xlink:href="#SvgjsPath3315" x="450" y="210" stroke="rgba(44, 148, 146, 1)"></use>
        <use xlink:href="#SvgjsPath3316" x="450" y="270" stroke="rgba(12, 2, 82, 1)"></use>
        <use xlink:href="#SvgjsPath3316" x="450" y="330" stroke="rgba(44, 148, 146, 1)"></use>
        <use xlink:href="#SvgjsPath3318" x="450" y="390" stroke="#1c538e"></use>
        <use xlink:href="#SvgjsPath3313" x="450" y="450" stroke="rgba(12, 2, 82, 1)"></use>
        <use xlink:href="#SvgjsPath3313" x="450" y="510" stroke="rgba(44, 148, 146, 1)"></use>
        <use xlink:href="#SvgjsPath3318" x="450" y="570" stroke="#1c538e"></use>
        <use xlink:href="#SvgjsPath3315" x="510" y="30" stroke="rgba(1, 173, 236, 1)"></use>
        <use xlink:href="#SvgjsPath3316" x="510" y="90" stroke="rgba(12, 2, 82, 1)"></use>
        <use xlink:href="#SvgjsPath3317" x="510" y="150" stroke="#1c538e" stroke-width="3"></use>
        <use xlink:href="#SvgjsPath3316" x="510" y="210" stroke="rgba(1, 173, 236, 1)"></use>
        <use xlink:href="#SvgjsPath3313" x="510" y="270" stroke="rgba(177, 241, 10, 1)"></use>
        <use xlink:href="#SvgjsPath3314" x="510" y="330" stroke="rgba(15, 70, 16, 1)"></use>
        <use xlink:href="#SvgjsPath3313" x="510" y="390" stroke="rgba(177, 241, 10, 1)"></use>
        <use xlink:href="#SvgjsPath3313" x="510" y="450" stroke="rgba(12, 2, 82, 1)"></use>
        <use xlink:href="#SvgjsPath3313" x="510" y="510" stroke="rgba(139, 124, 124, 1)"></use>
        <use xlink:href="#SvgjsPath3316" x="510" y="570" stroke="rgba(177, 241, 10, 1)"></use>
        <use xlink:href="#SvgjsPath3315" x="570" y="30" stroke="rgba(15, 70, 16, 1)"></use>
        <use xlink:href="#SvgjsPath3313" x="570" y="90" stroke="rgba(1, 173, 236, 1)"></use>
        <use xlink:href="#SvgjsPath3313" x="570" y="150" stroke="rgba(12, 2, 82, 1)"></use>
        <use xlink:href="#SvgjsPath3314" x="570" y="210" stroke="rgba(15, 70, 16, 1)"></use>
        <use xlink:href="#SvgjsPath3315" x="570" y="270" stroke="rgba(12, 2, 82, 1)"></use>
        <use xlink:href="#SvgjsPath3313" x="570" y="330" stroke="rgba(139, 124, 124, 1)"></use>
        <use xlink:href="#SvgjsPath3318" x="570" y="390" stroke="#1c538e"></use>
        <use xlink:href="#SvgjsPath3313" x="570" y="450" stroke="rgba(180, 21, 21, 1)"></use>
        <use xlink:href="#SvgjsPath3313" x="570" y="510" stroke="rgba(139, 124, 124, 1)"></use>
        <use xlink:href="#SvgjsPath3314" x="570" y="570" stroke="rgba(15, 70, 16, 1)"></use>
        <use xlink:href="#SvgjsPath3315" x="630" y="30" stroke="#1c538e"></use>
        <use xlink:href="#SvgjsPath3317" x="630" y="90" stroke="rgba(15, 70, 16, 1)" stroke-width="3"></use>
        <use xlink:href="#SvgjsPath3314" x="630" y="150" stroke="rgba(44, 148, 146, 1)"></use>
        <use xlink:href="#SvgjsPath3313" x="630" y="210" stroke="rgba(139, 124, 124, 1)"></use>
        <use xlink:href="#SvgjsPath3313" x="630" y="270" stroke="#1c538e"></use>
        <use xlink:href="#SvgjsPath3316" x="630" y="330" stroke="#1c538e"></use>
        <use xlink:href="#SvgjsPath3316" x="630" y="390" stroke="rgba(12, 2, 82, 1)"></use>
        <use xlink:href="#SvgjsPath3316" x="630" y="450" stroke="rgba(12, 2, 82, 1)"></use>
        <use xlink:href="#SvgjsPath3317" x="630" y="510" stroke="rgba(15, 70, 16, 1)" stroke-width="3"></use>
        <use xlink:href="#SvgjsPath3318" x="630" y="570" stroke="rgba(177, 241, 10, 1)"></use>
        <use xlink:href="#SvgjsPath3318" x="690" y="30" stroke="rgba(12, 2, 82, 1)"></use>
        <use xlink:href="#SvgjsPath3313" x="690" y="90" stroke="rgba(12, 2, 82, 1)"></use>
        <use xlink:href="#SvgjsPath3314" x="690" y="150" stroke="rgba(1, 173, 236, 1)"></use>
        <use xlink:href="#SvgjsPath3318" x="690" y="210" stroke="rgba(139, 124, 124, 1)"></use>
        <use xlink:href="#SvgjsPath3318" x="690" y="270" stroke="rgba(180, 21, 21, 1)"></use>
        <use xlink:href="#SvgjsPath3313" x="690" y="330" stroke="rgba(177, 241, 10, 1)"></use>
        <use xlink:href="#SvgjsPath3314" x="690" y="390" stroke="rgba(12, 2, 82, 1)"></use>
        <use xlink:href="#SvgjsPath3318" x="690" y="450" stroke="rgba(180, 21, 21, 1)"></use>
        <use xlink:href="#SvgjsPath3313" x="690" y="510" stroke="rgba(180, 21, 21, 1)"></use>
        <use xlink:href="#SvgjsPath3316" x="690" y="570" stroke="#1c538e"></use>
    </symbol>
</svg>