<svg xmlns="http://www.w3.org/2000/svg" version="1.1" xmlns:xlink="http://www.w3.org/1999/xlink" xmlns:svgjs="http://svgjs.dev/svgjs" width="1440" height="560" preserveAspectRatio="none" viewBox="0 0 1440 560">
    <g mask="url(&quot;#SvgjsMask1067&quot;)" fill="none">
        <rect width="1440" height="560" x="0" y="0" fill="rgba(34, 193, 214, 1)"></rect>
        <path d="M0,500.88C96.355,513.073,194.659,482.536,276.651,430.477C358.901,378.254,422.037,299.754,458.843,209.546C494.763,121.51,509.339,21.514,480.479,-69.082C453.377,-154.16,369.207,-201.935,307.274,-266.254C249.091,-326.678,204.236,-400.72,127.823,-435.324C45.051,-472.808,-47.484,-481.387,-137.293,-467.578C-235.958,-452.408,-337.99,-424.756,-407.415,-353.027C-478.318,-279.772,-520.965,-176.348,-517.798,-74.448C-514.807,21.793,-442.938,97.505,-390.897,178.517C-346.104,248.246,-298.976,312.996,-235.037,365.725C-163.871,424.414,-91.514,489.299,0,500.88" fill="#188998"></path>
        <path d="M1440 1255.3110000000001C1571.574 1254.645 1695.674 1201.184 1805.3519999999999 1128.499 1913.923 1056.548 2012.471 964.479 2061.148 843.669 2108.767 725.483 2106.328 591.694 2070.9629999999997 469.281 2038.259 356.077 1942.7559999999999 279.976 1871.245 186.324 1794.158 85.37 1758.561-75.17100000000005 1634.481-102.34100000000001 1508.889-129.84199999999998 1413.344 14.200000000000045 1293.108 59.730999999999995 1185.487 100.48500000000001 1049.3690000000001 69.745 967.223 150.337 884.102 231.885 885.37 362.627 867.145 477.63599999999997 848.66 594.287 825.042 712.01 860.359 824.713 898.351 945.954 970.271 1056.445 1072.262 1132.211 1178.173 1210.8890000000001 1308.065 1255.979 1440 1255.3110000000001" fill="#5bd5e5"></path>
    </g>
    <defs>
        <mask id="SvgjsMask1067">
            <rect width="1440" height="560" fill="#ffffff"></rect>
        </mask>
    </defs>
</svg>