<svg xmlns="http://www.w3.org/2000/svg" version="1.1" xmlns:xlink="http://www.w3.org/1999/xlink" xmlns:svgjs="http://svgjs.dev/svgjs" width="500" height="500" preserveAspectRatio="none" viewBox="0 0 500 500">
    <g mask="url(&quot;#SvgjsMask12600&quot;)" fill="none">
        <use xlink:href="#SvgjsG12616" transform="translate(0, 0)" fill="rgba(70, 101, 100, 1)"></use>
        <use xlink:href="#SvgjsG12616" transform="translate(0, 230.99999999999997)" fill="rgba(0, 0, 0, 1)"></use>
        <use xlink:href="#SvgjsG12616" transform="translate(0, 461.99999999999994)" fill="rgba(70, 101, 100, 1)"></use>
        <use xlink:href="#SvgjsG12616" transform="translate(230.99999999999997, 0)" fill="#0f457b"></use>
        <use xlink:href="#SvgjsG12616" transform="translate(230.99999999999997, 230.99999999999997)" fill="rgba(70, 101, 100, 1)"></use>
        <use xlink:href="#SvgjsG12616" transform="translate(230.99999999999997, 461.99999999999994)" fill="rgba(246, 195, 13, 1)"></use>
        <use xlink:href="#SvgjsG12616" transform="translate(461.99999999999994, 0)" fill="rgba(0, 0, 0, 1)"></use>
        <use xlink:href="#SvgjsG12616" transform="translate(461.99999999999994, 230.99999999999997)" fill="rgba(255, 255, 255, 1)"></use>
        <use xlink:href="#SvgjsG12616" transform="translate(461.99999999999994, 461.99999999999994)" fill="rgba(246, 195, 13, 1)"></use>
    </g>
    <defs>
        <mask id="SvgjsMask12600">
            <rect width="500" height="500" fill="#ffffff"></rect>
        </mask>
        <g id="SvgjsG12611">
            <path d="M6.498 9.304L12.139 3.663l1.565 1.566-5.641 5.641z"></path>
            <path d="M6.8 0.457h2.541v8.028H6.8z"></path>
            <path d="M8.072 10.876L2.429 5.238l1.563-1.566L9.636 9.313zM1.2 13.277h13.733v2.266H1.2z"></path>
            <path d="M0.733 9.143h2.267v6.4h-2.267z m12.267 0h2.267v6.4h-2.267z"></path>
        </g>
        <g id="SvgjsG12601">
            <path d="M3.474 10.969C3.474 7.665 8.077 0.361 8.077 0.361s4.602 7.305 4.602 10.608c0 2.247-1.506 4.771-4.602 4.771-3.095 0-4.603-2.524-4.603-4.771z" fill-rule="evenodd"></path>
        </g>
        <g id="SvgjsG12605">
            <path d="M7.713 15.485C3.459 15.485 0 12.025 0 7.768 0 3.513 3.459 0.051 7.713 0.051S15.432 3.513 15.432 7.768c0 4.257-3.465 7.716-7.719 7.717z m0-1.91c3.201 0 5.81-2.604 5.81-5.809 0-3.199-2.61-5.807-5.81-5.807-3.202 0-5.804 2.609-5.804 5.807-0.001 3.206 2.602 5.809 5.804 5.809z"></path>
            <path d="M7.753 8.787a0.574 0.574 0 0 1-0.554-0.042 0.578 0.578 0 0 1-0.259-0.399L6.931 3.862a0.58 0.58 0 0 1 1.162 0v3.478l2.975-1.4a0.578 0.578 0 0 1 0.773 0.275c0.138 0.292 0.011 0.637-0.276 0.774l-3.81 1.798z"></path>
        </g>
        <g id="SvgjsG12607">
            <path d="M11.986 8.245a46.749 46.749 0 0 1-0.521-0.411c-0.146-0.116-0.293-0.233-0.44-0.348-0.88-0.688-1.797-1.316-2.816-1.407A2.815 2.815 0 0 0 7.954 6.067c-0.086 0-0.171 0.011-0.255 0.018-1.022 0.093-1.942 0.717-2.826 1.408l0.093 0.073c0.108 0.085 0.213 0.168 0.32 0.252C6.165 7.137 7.021 6.576 7.954 6.576c0.93 0 1.784 0.558 2.66 1.236a35.098 35.098 0 0 1 0.535 0.421c0.142 0.113 0.283 0.226 0.426 0.338C12.532 9.32 13.531 10 14.658 10c0.437 0 0.854-0.104 1.257-0.273v-0.557c-0.409 0.197-0.825 0.32-1.257 0.32-0.934 0-1.792-0.563-2.672-1.245z"></path>
            <path d="M11.574 7.496c0.029 0.023 0.059 0.046 0.088 0.07 0.109 0.087 0.216 0.17 0.325 0.256 0.318-0.246 0.635-0.476 0.952-0.67v1.37c0.17 0.111 0.34 0.214 0.51 0.301V6.878c0.315-0.147 0.634-0.248 0.96-0.283v2.537c0.078 0.01 0.157 0.018 0.237 0.018 0.091 0 0.183-0.009 0.273-0.021V6.592c0.34 0.037 0.67 0.144 0.996 0.3V6.336C15.514 6.17 15.099 6.067 14.664 6.067c-1.128 0-2.13 0.68-3.09 1.429z m-7.248 1.08c-0.034-0.027-0.068-0.053-0.102-0.08-0.104-0.083-0.207-0.162-0.31-0.245-0.877 0.678-1.733 1.238-2.665 1.238C0.82 9.49 0.407 9.36 0 9.152v0.562C0.401 9.891 0.815 10 1.249 10c1.124 0 2.122-0.677 3.077-1.423z"></path>
            <path d="M0.989 9.133c0.084 0.011 0.17 0.019 0.254 0.02 0.086 0 0.171-0.008 0.256-0.02V6.592c0.329 0.035 0.65 0.136 0.967 0.285-0.002 0.012-0.007 0.023-0.007 0.036v1.903a5.818 5.818 0 0 0 0.51-0.303V7.152c0.487 0.3 0.971 0.684 1.467 1.08C5.525 9.101 6.652 10 7.948 10c1.123 0 2.121-0.675 3.078-1.42l-0.106-0.084c-0.103-0.082-0.205-0.161-0.306-0.242-0.313 0.242-0.622 0.466-0.934 0.658V7.564A5.816 5.816 0 0 0 9.17 7.261v1.893c0 0.01 0.004 0.019 0.005 0.029-0.316 0.149-0.637 0.252-0.965 0.288V6.937a1.97 1.97 0 0 0-0.267-0.02c-0.082 0-0.163 0.008-0.243 0.017v2.541c-0.33-0.035-0.652-0.136-0.969-0.283 0.002-0.013 0.006-0.024 0.006-0.039V7.248a5.629 5.629 0 0 0-0.51 0.302v1.368c-0.49-0.299-0.976-0.686-1.474-1.083C3.666 6.966 2.539 6.067 1.243 6.067c-0.432 0-0.844 0.096-1.243 0.251v0.55c0.324-0.144 0.652-0.244 0.989-0.278V9.133z"></path>
        </g>
        <g id="SvgjsG12610">
            <path d="M2.524 8.637H0.014V7.308h2.51v1.329zM3.656 4.576L1.884 2.804l0.935-0.935 1.772 1.772-0.935 0.935z m0 6.817l0.935 0.935-1.772 1.773-0.934-0.936 1.771-1.772z m4.997-8.884h-1.33V-0.002h1.33v2.511z m-1.33 10.952h1.33v2.51h-1.33v-2.509zM12.344 4.576l-0.96-0.935 1.796-1.772 0.935 0.935-1.772 1.772z m0 6.792l1.771 1.797-0.935 0.936-1.771-1.774 0.936-0.96z m3.643-4.06v1.329h-2.51V7.308h2.509z"></path>
            <path d="M3.702 7.984a4.184 4.184 0 1 0 8.368 0 4.184 4.184 0 1 0-8.368 0"></path>
        </g>
        <g id="SvgjsG12612">
            <path d="M15.233 9.431c0.295 0 0.569-0.239 0.61-0.532 0 0 0.056-0.411 0.056-0.899s-0.056-0.899-0.056-0.899c-0.041-0.292-0.315-0.531-0.61-0.53h-1.524c-0.295 0-0.602-0.188-0.681-0.418s-0.188-0.967 0.021-1.176l1.078-1.077c0.209-0.209 0.225-0.565 0.036-0.792l-1.268-1.268c-0.227-0.189-0.583-0.173-0.792 0.036l-1.078 1.077c-0.208 0.209-0.556 0.293-0.772 0.187s-0.822-0.552-0.821-0.847V0.767c0-0.295-0.239-0.569-0.531-0.61 0 0-0.411-0.057-0.9-0.056s-0.899 0.057-0.899 0.056c-0.293 0.04-0.532 0.315-0.532 0.61v1.524c0 0.295-0.188 0.601-0.418 0.681s-0.967 0.188-1.176-0.021l-1.078-1.078C3.689 1.665 3.333 1.649 3.107 1.837l-1.268 1.268c-0.189 0.227-0.173 0.583 0.036 0.792l1.077 1.078c0.209 0.209 0.293 0.556 0.187 0.772s-0.552 0.822-0.847 0.822H0.767c-0.295 0-0.569 0.239-0.61 0.531 0 0-0.057 0.411-0.056 0.899s0.057 0.899 0.056 0.9c0.04 0.293 0.315 0.532 0.61 0.532h1.525c0.295 0 0.601 0.188 0.681 0.417 0.079 0.23 0.188 0.967-0.02 1.176l-1.078 1.077C1.667 12.311 1.651 12.667 1.84 12.893l1.267 1.268c0.227 0.189 0.583 0.173 0.792-0.036l1.077-1.077c0.209-0.208 0.556-0.292 0.772-0.187s0.821 0.553 0.822 0.848v1.524c0 0.295 0.239 0.569 0.532 0.61 0 0 0.411 0.057 0.899 0.057s0.899-0.056 0.899-0.057c0.293-0.04 0.531-0.315 0.532-0.609v-1.524c0-0.295 0.188-0.602 0.418-0.681 0.23-0.079 0.967-0.188 1.176 0.021l1.077 1.077c0.209 0.209 0.565 0.225 0.792 0.036l1.268-1.267c0.189-0.227 0.173-0.583-0.036-0.792l-1.078-1.077c-0.209-0.209-0.293-0.557-0.186-0.773 0.106-0.216 0.552-0.822 0.847-0.822h1.525zM8 10.892c-1.597 0-2.891-1.294-2.891-2.892 0-1.596 1.295-2.891 2.891-2.891S10.892 6.404 10.892 8 9.597 10.892 8 10.892z"></path>
        </g>
        <g id="SvgjsG12606">
            <path d="M8.76 6.296L0.5 2.37v-0.78L9.032 5.68l-0.274 0.614zM5.936 10.61h3.614v3.226a0.954 0.954 0 0 0 1.91 0V10.61c0.286 0 0.314-0.188 0.314-0.406V7.8l-3.02-1.48h-6.42l-0.828-0.468a0.552 0.552 0 0 0-0.754 0.208c-0.15 0.264-0.06 0.6 0.208 0.754l1.308 0.75v6.272a0.954 0.954 0 0 0 1.91 0L4.172 11.38l1.73 2.92a0.96 0.96 0 0 0 1.312 0.334 0.966 0.966 0 0 0 0.328-1.314l-1.612-2.71z m3.114-4.946l2.72 1.292v-0.506l2.214-0.004 0.812-1.746L9.05 1.96v3.704z" fill-rule="evenodd"></path>
        </g>
        <g id="SvgjsG12613">
            <path d="M2.752 4.591c0.292 0 0.539-0.241 0.539-0.533 0-0.293-0.247-0.534-0.539-0.534-0.289 0-0.539 0.241-0.539 0.534 0 0.292 0.249 0.533 0.539 0.533M0.016 5.379a0.062 0.062 0 0 1-0.016-0.04c0-0.03 0.028-0.054 0.058-0.055h1.705c0.082 0 0.149-0.066 0.149-0.148 0-0.064-0.028-0.107-0.091-0.143L0.279 4.259a0.097 0.097 0 0 1-0.048-0.086c0-0.026 0.008-0.05 0.028-0.071 0 0 4.046-3.576 13.009-0.11l2.461-1.2c0.024-0.012 0.052-0.02 0.078-0.02 0.107 0 0.193 0.086 0.193 0.193a0.208 0.208 0 0 1-0.028 0.098l-1.451 1.807 1.451 1.801c0.016 0.032 0.028 0.064 0.028 0.103 0 0.102-0.086 0.189-0.193 0.189-0.026 0-0.054-0.008-0.078-0.02l-2.461-1.2S4.701 9.144 0.016 5.379m2.115 4.307c0.171 0 0.32-0.136 0.319-0.311 0-0.169-0.149-0.311-0.319-0.311-0.167 0-0.314 0.143-0.314 0.311 0 0.175 0.147 0.312 0.314 0.312m-1.212 0.179a0.03 0.03 0 0 1-0.008-0.016c0-0.014 0.012-0.022 0.028-0.023h0.679a0.062 0.062 0 0 0 0.058-0.059c0-0.026-0.012-0.042-0.036-0.054l-0.615-0.295a0.042 0.042 0 0 1-0.02-0.036c0-0.012 0.004-0.024 0.012-0.028 0 0 1.616-1.434 5.2-0.042l0.985-0.483a0.078 0.078 0 0 1 0.032-0.008c0.043 0 0.074 0.034 0.074 0.074 0 0.016-0.004 0.03-0.008 0.039l-0.58 0.723 0.58 0.722a0.138 0.138 0 0 1 0.008 0.04c0 0.042-0.032 0.078-0.074 0.079a0.076 0.076 0 0 1-0.032-0.008l-0.985-0.483c0 0.001-3.421 1.362-5.298-0.142m9.24-0.179a0.312 0.312 0 0 0 0.309-0.311c0-0.169-0.143-0.311-0.309-0.312a0.309 0.309 0 0 0-0.312 0.311c0 0.175 0.132 0.312 0.312 0.312m-1.214 0.179c-0.008-0.004-0.008-0.012-0.008-0.016 0-0.014 0.012-0.022 0.024-0.023h0.679a0.062 0.062 0 0 0 0.063-0.06c0-0.026-0.011-0.042-0.037-0.055l-0.618-0.293a0.042 0.042 0 0 1-0.02-0.036c0-0.012 0.004-0.024 0.013-0.028 0 0 1.622-1.434 5.206-0.042l0.98-0.483a0.115 0.115 0 0 1 0.037-0.008 0.077 0.077 0 0 1 0.074 0.074c0 0.016-0.004 0.03-0.012 0.038l-0.581 0.723 0.581 0.722a0.077 0.077 0 0 1 0.012 0.04c0 0.042-0.037 0.078-0.075 0.079a0.119 0.119 0 0 1-0.036-0.008l-0.981-0.483c0 0.001-3.427 1.362-5.301-0.142M6.173 12.687a0.312 0.312 0 0 0 0.311-0.313c0-0.169-0.141-0.312-0.311-0.312-0.175 0-0.316 0.142-0.316 0.311 0 0.175 0.141 0.314 0.316 0.314m-1.216 0.177c-0.004-0.004-0.004-0.006-0.004-0.014 0-0.012 0.008-0.024 0.024-0.024h0.677c0.035 0 0.064-0.028 0.064-0.059 0-0.024-0.013-0.044-0.04-0.056l-0.617-0.294a0.046 0.046 0 0 1-0.02-0.036c0-0.012 0.004-0.02 0.012-0.026 0 0 1.62-1.433 5.204-0.044l0.983-0.483c0.012-0.004 0.022-0.008 0.03-0.008a0.077 0.077 0 0 1 0.078 0.079 0.083 0.083 0 0 1-0.009 0.038l-0.584 0.725 0.583 0.722a0.086 0.086 0 0 1 0.01 0.04 0.078 0.078 0 0 1-0.078 0.073c-0.008 0-0.018-0.004-0.031-0.008l-0.983-0.478s-3.427 1.361-5.302-0.147"></path>
        </g>
        <g id="SvgjsG12614">
            <path d="M7.824 5.835l3.947-4.08-0.12 1.058 1.933 1.299a0.667 0.667 0 0 1 0.256 0.915 0.659 0.659 0 0 1-0.699 0.328l-0.16-0.032a1.733 1.733 0 0 1-2.138 1.253l-1.475 3.005L9.36 13.707a0.64 0.64 0 0 1-1.28 0V9.48H4.843l-0.579 0.995 1.211 2.898a0.64 0.64 0 0 1-1.112 0.635L2.941 10.667v-1.056l-0.634 0.994V13.707a0.64 0.64 0 0 1-1.288 0V10.123l0.533-0.827V6.48l-0.533 0.808v2.347h-1.014v-2.374c0-0.787 0.64-1.427 1.43-1.426h6.389z m4.811-0.579L11.6 5.067l-0.595 1.184a1.365 1.365 0 0 0 1.632-0.995h-0.005z" fill-rule="evenodd"></path>
        </g>
        <g id="SvgjsG12609">
            <path d="M14.88 1.14h0.899v-0.34l-0.8 0.003V0h-0.334v0.899l-0.413 0.411 0.237 0.235L14.88 1.14zM1.968 13.203c-0.11-0.106-0.282-0.106-0.387 0a0.277 0.277 0 0 0 0 0.387l0.83 0.829c0.11 0.103 0.281 0.103 0.386 0 0.106-0.11 0.106-0.282 0-0.387L1.968 13.203zM1.25 13.917c-0.104-0.106-0.277-0.106-0.385 0.003-0.106 0.104-0.106 0.275 0.002 0.385l0.832 0.83c0.106 0.106 0.277 0.106 0.385-0.004 0.106-0.106 0.106-0.277-0.004-0.381l-0.83-0.834zM1.094 15.883a0.268 0.268 0 0 0 0.23-0.074c0.106-0.11 0.106-0.281 0-0.387l-0.74-0.736a0.27 0.27 0 0 0-0.384 0c-0.07 0.07-0.094 0.168-0.07 0.257l0.233 0.718 0.731 0.222z m11.184-11.447l-0.429 0.433a0.839 0.839 0 0 0-0.219 0.566c0 0.233 0.096 0.443 0.247 0.596l2.475 2.472a4.375 4.375 0 0 1 1.284 3.103C15.635 14.032 13.672 16 11.247 16c-2.426 0-4.392-1.968-4.392-4.394l0.01-5.995c0-1.49-1.206-2.696-2.698-2.696-1.488 0-2.694 1.206-2.693 2.696a2.686 2.686 0 0 0 0.789 1.908l2.009 2.008a2.256 2.256 0 0 1 0.666 1.604c0 0.628-0.253 1.196-0.665 1.605l-1.033 1.031-1.001-1.005 1.053-1.034a0.849 0.849 0 0 0 0.217-0.569 0.848 0.848 0 0 0-0.245-0.596L1.107 8.434A4.144 4.144 0 0 1 0 5.61C0 3.316 1.862 1.46 4.155 1.46s4.151 1.856 4.151 4.15l-0.004 5.996c0 1.629 1.318 2.945 2.945 2.944 1.625 0 2.945-1.316 2.945-2.944 0-0.81-0.331-1.545-0.865-2.08L10.87 7.054c-0.412-0.413-0.666-0.977-0.665-1.604 0-0.628 0.253-1.196 0.665-1.608l0.623-0.624a0.208 0.208 0 0 0 0.061-0.152 0.206 0.206 0 0 0-0.045-0.135l-0.332-0.383a0.32 0.32 0 0 1-0.061-0.194s-0.223-0.56 1.82-1.054c0.291-0.07 0.626-0.05 0.851 0.173l0.531 0.459c0.218 0.229 0.231 0.564 0.153 0.855-0.538 2.032-1.093 1.798-1.093 1.798a0.339 0.339 0 0 1-0.193-0.065l-0.375-0.342a0.218 0.218 0 0 0-0.133-0.05 0.212 0.212 0 0 0-0.154 0.06l-0.245 0.247"></path>
        </g>
        <g id="SvgjsG12602">
            <path d="M14.294 6.792l-4.129-1.683-4.13 1.683-1.447 3.678h0.858v3.646h3.003v-3.432h3.431v3.432h3.003v-3.646h0.858L14.295 6.792z m-3.272 2.177h-1.716v-1.716h1.716v1.716z"></path>
            <path d="M5.447 4.25a2.574 2.574 0 0 0-5.148 0v9.865H4.59v-2.787H3.329l2.117-5.388V4.25z"></path>
        </g>
        <g id="SvgjsG12608">
            <path d="M0.267 14.413h15.466V16H0.267z m0.632-1.535h13.998v0.872H0.899z m1.139-7.74h2.352v7.056h-2.352z m4.693 0h2.352v7.056h-2.352z m4.513 0h2.352v7.056H11.244zM0 3.595L8 0l8 3.595-0.007 0.927L0 4.535z"></path>
        </g>
        <g id="SvgjsG12603">
            <path d="M13.828 10.843V16H9.151V13.513c0-1.275-1.154-1.693-1.154-1.693s-1.154 0.418-1.154 1.693V16H2.24V10.843l3.881-1.874V3.994L8.032 0l1.914 3.994v4.975L13.828 10.843zM7.374 5.885v1.052h1.311v-1.053c0-1.056-0.656-1.402-0.656-1.401s-0.655 0.346-0.655 1.401z"></path>
        </g>
        <g id="SvgjsG12604">
            <path d="M2.861 5.341a3.628 3.628 0 0 0-0.678-2.495A3.632 3.632 0 0 0 0.021 1.427 3.627 3.627 0 0 0 0.698 3.923a3.629 3.629 0 0 0 2.163 1.419z m-0.354-2.73a4.106 4.106 0 0 1 0.364 0.61 4.12 4.12 0 0 1 0.363-0.61 4.035 4.035 0 0 1 0.537-0.6A3.625 3.625 0 0 0 2.878 0a3.628 3.628 0 0 0-0.893 2.023 4.082 4.082 0 0 1 0.522 0.588z m3.213-1.184a3.632 3.632 0 0 0-2.162 1.419 3.657 3.657 0 0 0-0.478 0.902 4.027 4.027 0 0 1 0.186 1.485 3.624 3.624 0 0 0 1.778-1.308 3.627 3.627 0 0 0 0.676-2.497z m4.541 0.818a1.473 1.473 0 0 0-1.473 1.473c0 0.813 0.659 1.473 1.473 1.473s1.472-0.659 1.472-1.472a1.473 1.473 0 0 0-1.474-1.472z m3.817 6.152l-0.748-2.135c-0.145-0.402-0.425-0.716-1.212-0.716H8.661c-0.787 0-1.067 0.314-1.212 0.716l-0.748 2.135c-0.057 0.138-0.085 0.448 0.219 0.655l1.76 1.161a0.558 0.558 0 0 0 0.773-0.157 0.559 0.559 0 0 0-0.159-0.775l-0.846-0.559-0.552-0.363L8.291 7.273h0.545l-0.319 0.881 1.061 0.7a1.062 1.062 0 0 1 0.459 0.678 1.065 1.065 0 0 1-0.155 0.805 1.086 1.086 0 0 1-0.227 0.245h1.469a1.081 1.081 0 0 1-0.226-0.245 1.064 1.064 0 0 1-0.156-0.804 1.06 1.06 0 0 1 0.459-0.679l1.061-0.699-0.32-0.882h0.545l0.394 1.086-0.551 0.364-0.845 0.558a0.558 0.558 0 1 0 0.614 0.931l1.762-1.161c0.305-0.208 0.275-0.517 0.219-0.656z m-0.624 3.217c0-0.748 0.606-1.353 1.353-1.353S16.162 10.866 16.162 11.614c0 0.746-0.608 1.354-1.355 1.354s-1.353-0.608-1.353-1.354zM0.303 14.327a0.302 0.302 0 0 0-0.302 0.302v0.405s-0.03 0.574 0.559 0.573H15.564c0.592 0 0.562-0.56 0.562-0.559V13.825s-0.051-0.391-0.506-0.391h-1.464c-0.501 0-0.914 0.894-1.87 0.893H0.302z"></path>
            <path d="M11.944 11.269H7.735l-1.751 0.268 0.08-1.731h-0.293l0.082 1.751-1.223 0.188 0.091-1.903h-0.296l0.089 1.92-1.665 0.255 0.087-1.913h-0.287l0.087 1.931-1.996 0.305c-0.014 0-0.027 0.003-0.042 0.005l0.084-1.798H0.493l0.082 1.815a0.741 0.741 0 0 0-0.574 0.721c0 0.411 0.331 0.743 0.74 0.743l5.755 0.001a1.053 1.053 0 0 1-0.16-0.556 1.063 1.063 0 0 1 1.063-1.063h2.305L11.572 11.817l0.103 0.497-1.92 0.4H7.397a0.556 0.556 0 0 0-0.007 1.112l4.564 0c0.705-0.006 1.272-0.575 1.272-1.277a1.28 1.28 0 0 0-1.282-1.28z"></path>
        </g>
        <g id="SvgjsG12615">
            <path d="M9.992 5.121c0 1.164-0.945 2.107-2.11 2.107-1.163 0-2.106-0.943-2.106-2.107 0-1.164 0.944-2.107 2.107-2.107 1.165 0 2.11 0.943 2.111 2.107z"></path>
            <path d="M7.885 0c0.935 0 2.466 0.393 3.32 1.326L10.056 3.532a2.735 2.735 0 0 0-2.171-1.066 2.734 2.734 0 0 0-2.152 1.044L4.561 1.375C5.548 0.389 6.91 0 7.885 0z m-0.332 2.113h0.655V1.568h0.546V0.912h-0.546v-0.547h-0.655v0.547h-0.546V1.568h0.546v0.545z m-2.44 8.903h0.54L4.883 13.658h6.023l-0.768-2.642h0.54l0.772 2.641h1.773L12.013 9.654c-0.189-0.661-1.018-1.824-2.448-1.859l-3.287-0.003c-1.462 0.007-2.308 1.193-2.5 1.863L2.545 13.658h1.798l0.77-2.643zM0 14.5h15.767V16H0z"></path>
        </g>
        <g id="SvgjsG12616">
            <use xlink:href="#SvgjsG12601" transform="translate(0, 0) scale(0.7)" fill="rgba(96, 153, 82, 1)"></use>
            <use xlink:href="#SvgjsG12602" transform="translate(0, 23.099999999999998) scale(0.7)" fill="rgba(255, 255, 255, 1)"></use>
            <use xlink:href="#SvgjsG12603" transform="translate(0, 46.199999999999996) scale(0.7)" fill="rgba(70, 101, 100, 1)"></use>
            <use xlink:href="#SvgjsG12601" transform="translate(0, 69.3) scale(0.7)" fill="rgba(0, 0, 0, 1)"></use>
            <use xlink:href="#SvgjsG12604" transform="translate(0, 92.39999999999999) scale(0.7)" fill="rgba(255, 252, 8, 1)"></use>
            <use xlink:href="#SvgjsG12605" transform="translate(0, 115.49999999999999) scale(0.7)" fill="rgba(246, 195, 13, 1)"></use>
            <use xlink:href="#SvgjsG12606" transform="translate(0, 138.6) scale(0.7)" fill="#0f457b"></use>
            <use xlink:href="#SvgjsG12607" transform="translate(0, 161.7) scale(0.7)" fill="rgba(46, 110, 76, 1)"></use>
            <use xlink:href="#SvgjsG12606" transform="translate(0, 184.79999999999998) scale(0.7)" fill="rgba(0, 0, 0, 1)"></use>
            <use xlink:href="#SvgjsG12607" transform="translate(0, 207.89999999999998) scale(0.7)" fill="rgba(255, 252, 8, 1)"></use>
            <use xlink:href="#SvgjsG12608" transform="translate(23.099999999999998, 0) scale(0.7)" fill="rgba(246, 195, 13, 1)"></use>
            <use xlink:href="#SvgjsG12609" transform="translate(23.099999999999998, 23.099999999999998) scale(0.7)" fill="rgba(96, 153, 82, 1)"></use>
            <use xlink:href="#SvgjsG12610" transform="translate(23.099999999999998, 46.199999999999996) scale(0.7)" fill="rgba(70, 101, 100, 1)"></use>
            <use xlink:href="#SvgjsG12611" transform="translate(23.099999999999998, 69.3) scale(0.7)" fill="#0f457b"></use>
            <use xlink:href="#SvgjsG12612" transform="translate(23.099999999999998, 92.39999999999999) scale(0.7)" fill="rgba(246, 195, 13, 1)"></use>
            <use xlink:href="#SvgjsG12610" transform="translate(23.099999999999998, 115.49999999999999) scale(0.7)" fill="#0f457b"></use>
            <use xlink:href="#SvgjsG12612" transform="translate(23.099999999999998, 138.6) scale(0.7)" fill="rgba(0, 0, 0, 1)"></use>
            <use xlink:href="#SvgjsG12603" transform="translate(23.099999999999998, 161.7) scale(0.7)" fill="rgba(70, 101, 100, 1)"></use>
            <use xlink:href="#SvgjsG12602" transform="translate(23.099999999999998, 184.79999999999998) scale(0.7)" fill="rgba(0, 0, 0, 1)"></use>
            <use xlink:href="#SvgjsG12604" transform="translate(23.099999999999998, 207.89999999999998) scale(0.7)" fill="rgba(0, 0, 0, 1)"></use>
            <use xlink:href="#SvgjsG12610" transform="translate(46.199999999999996, 0) scale(0.7)" fill="#0f457b"></use>
            <use xlink:href="#SvgjsG12610" transform="translate(46.199999999999996, 23.099999999999998) scale(0.7)" fill="#0f457b"></use>
            <use xlink:href="#SvgjsG12602" transform="translate(46.199999999999996, 46.199999999999996) scale(0.7)" fill="#0f457b"></use>
            <use xlink:href="#SvgjsG12604" transform="translate(46.199999999999996, 69.3) scale(0.7)" fill="rgba(255, 255, 255, 1)"></use>
            <use xlink:href="#SvgjsG12602" transform="translate(46.199999999999996, 92.39999999999999) scale(0.7)" fill="#0f457b"></use>
            <use xlink:href="#SvgjsG12608" transform="translate(46.199999999999996, 115.49999999999999) scale(0.7)" fill="rgba(255, 252, 8, 1)"></use>
            <use xlink:href="#SvgjsG12612" transform="translate(46.199999999999996, 138.6) scale(0.7)" fill="rgba(70, 101, 100, 1)"></use>
            <use xlink:href="#SvgjsG12611" transform="translate(46.199999999999996, 161.7) scale(0.7)" fill="rgba(255, 252, 8, 1)"></use>
            <use xlink:href="#SvgjsG12605" transform="translate(46.199999999999996, 184.79999999999998) scale(0.7)" fill="rgba(255, 252, 8, 1)"></use>
            <use xlink:href="#SvgjsG12613" transform="translate(46.199999999999996, 207.89999999999998) scale(0.7)" fill="rgba(0, 0, 0, 1)"></use>
            <use xlink:href="#SvgjsG12601" transform="translate(69.3, 0) scale(0.7)" fill="rgba(0, 0, 0, 1)"></use>
            <use xlink:href="#SvgjsG12613" transform="translate(69.3, 23.099999999999998) scale(0.7)" fill="rgba(96, 153, 82, 1)"></use>
            <use xlink:href="#SvgjsG12614" transform="translate(69.3, 46.199999999999996) scale(0.7)" fill="rgba(0, 0, 0, 1)"></use>
            <use xlink:href="#SvgjsG12604" transform="translate(69.3, 69.3) scale(0.7)" fill="rgba(255, 252, 8, 1)"></use>
            <use xlink:href="#SvgjsG12615" transform="translate(69.3, 92.39999999999999) scale(0.7)" fill="rgba(255, 252, 8, 1)"></use>
            <use xlink:href="#SvgjsG12605" transform="translate(69.3, 115.49999999999999) scale(0.7)" fill="#0f457b"></use>
            <use xlink:href="#SvgjsG12612" transform="translate(69.3, 138.6) scale(0.7)" fill="rgba(255, 255, 255, 1)"></use>
            <use xlink:href="#SvgjsG12604" transform="translate(69.3, 161.7) scale(0.7)" fill="rgba(246, 195, 13, 1)"></use>
            <use xlink:href="#SvgjsG12603" transform="translate(69.3, 184.79999999999998) scale(0.7)" fill="rgba(96, 153, 82, 1)"></use>
            <use xlink:href="#SvgjsG12615" transform="translate(69.3, 207.89999999999998) scale(0.7)" fill="#0f457b"></use>
            <use xlink:href="#SvgjsG12609" transform="translate(92.39999999999999, 0) scale(0.7)" fill="rgba(46, 110, 76, 1)"></use>
            <use xlink:href="#SvgjsG12602" transform="translate(92.39999999999999, 23.099999999999998) scale(0.7)" fill="rgba(70, 101, 100, 1)"></use>
            <use xlink:href="#SvgjsG12611" transform="translate(92.39999999999999, 46.199999999999996) scale(0.7)" fill="rgba(96, 153, 82, 1)"></use>
            <use xlink:href="#SvgjsG12608" transform="translate(92.39999999999999, 69.3) scale(0.7)" fill="rgba(255, 252, 8, 1)"></use>
            <use xlink:href="#SvgjsG12613" transform="translate(92.39999999999999, 92.39999999999999) scale(0.7)" fill="rgba(0, 0, 0, 1)"></use>
            <use xlink:href="#SvgjsG12601" transform="translate(92.39999999999999, 115.49999999999999) scale(0.7)" fill="rgba(0, 0, 0, 1)"></use>
            <use xlink:href="#SvgjsG12609" transform="translate(92.39999999999999, 138.6) scale(0.7)" fill="rgba(0, 0, 0, 1)"></use>
            <use xlink:href="#SvgjsG12609" transform="translate(92.39999999999999, 161.7) scale(0.7)" fill="rgba(0, 0, 0, 1)"></use>
            <use xlink:href="#SvgjsG12607" transform="translate(92.39999999999999, 184.79999999999998) scale(0.7)" fill="rgba(46, 110, 76, 1)"></use>
            <use xlink:href="#SvgjsG12605" transform="translate(92.39999999999999, 207.89999999999998) scale(0.7)" fill="rgba(70, 101, 100, 1)"></use>
            <use xlink:href="#SvgjsG12603" transform="translate(115.49999999999999, 0) scale(0.7)" fill="rgba(255, 255, 255, 1)"></use>
            <use xlink:href="#SvgjsG12604" transform="translate(115.49999999999999, 23.099999999999998) scale(0.7)" fill="#0f457b"></use>
            <use xlink:href="#SvgjsG12615" transform="translate(115.49999999999999, 46.199999999999996) scale(0.7)" fill="rgba(70, 101, 100, 1)"></use>
            <use xlink:href="#SvgjsG12606" transform="translate(115.49999999999999, 69.3) scale(0.7)" fill="rgba(46, 110, 76, 1)"></use>
            <use xlink:href="#SvgjsG12611" transform="translate(115.49999999999999, 92.39999999999999) scale(0.7)" fill="rgba(255, 255, 255, 1)"></use>
            <use xlink:href="#SvgjsG12615" transform="translate(115.49999999999999, 115.49999999999999) scale(0.7)" fill="rgba(246, 195, 13, 1)"></use>
            <use xlink:href="#SvgjsG12609" transform="translate(115.49999999999999, 138.6) scale(0.7)" fill="rgba(255, 255, 255, 1)"></use>
            <use xlink:href="#SvgjsG12611" transform="translate(115.49999999999999, 161.7) scale(0.7)" fill="rgba(70, 101, 100, 1)"></use>
            <use xlink:href="#SvgjsG12614" transform="translate(115.49999999999999, 184.79999999999998) scale(0.7)" fill="#0f457b"></use>
            <use xlink:href="#SvgjsG12614" transform="translate(115.49999999999999, 207.89999999999998) scale(0.7)" fill="rgba(246, 195, 13, 1)"></use>
            <use xlink:href="#SvgjsG12606" transform="translate(138.6, 0) scale(0.7)" fill="rgba(46, 110, 76, 1)"></use>
            <use xlink:href="#SvgjsG12613" transform="translate(138.6, 23.099999999999998) scale(0.7)" fill="rgba(255, 252, 8, 1)"></use>
            <use xlink:href="#SvgjsG12604" transform="translate(138.6, 46.199999999999996) scale(0.7)" fill="rgba(96, 153, 82, 1)"></use>
            <use xlink:href="#SvgjsG12603" transform="translate(138.6, 69.3) scale(0.7)" fill="rgba(46, 110, 76, 1)"></use>
            <use xlink:href="#SvgjsG12614" transform="translate(138.6, 92.39999999999999) scale(0.7)" fill="rgba(70, 101, 100, 1)"></use>
            <use xlink:href="#SvgjsG12609" transform="translate(138.6, 115.49999999999999) scale(0.7)" fill="rgba(46, 110, 76, 1)"></use>
            <use xlink:href="#SvgjsG12607" transform="translate(138.6, 138.6) scale(0.7)" fill="rgba(255, 255, 255, 1)"></use>
            <use xlink:href="#SvgjsG12607" transform="translate(138.6, 161.7) scale(0.7)" fill="rgba(255, 252, 8, 1)"></use>
            <use xlink:href="#SvgjsG12606" transform="translate(138.6, 184.79999999999998) scale(0.7)" fill="rgba(255, 255, 255, 1)"></use>
            <use xlink:href="#SvgjsG12606" transform="translate(138.6, 207.89999999999998) scale(0.7)" fill="rgba(70, 101, 100, 1)"></use>
            <use xlink:href="#SvgjsG12611" transform="translate(161.7, 0) scale(0.7)" fill="rgba(70, 101, 100, 1)"></use>
            <use xlink:href="#SvgjsG12614" transform="translate(161.7, 23.099999999999998) scale(0.7)" fill="#0f457b"></use>
            <use xlink:href="#SvgjsG12601" transform="translate(161.7, 46.199999999999996) scale(0.7)" fill="rgba(70, 101, 100, 1)"></use>
            <use xlink:href="#SvgjsG12609" transform="translate(161.7, 69.3) scale(0.7)" fill="rgba(46, 110, 76, 1)"></use>
            <use xlink:href="#SvgjsG12615" transform="translate(161.7, 92.39999999999999) scale(0.7)" fill="rgba(255, 252, 8, 1)"></use>
            <use xlink:href="#SvgjsG12606" transform="translate(161.7, 115.49999999999999) scale(0.7)" fill="rgba(255, 255, 255, 1)"></use>
            <use xlink:href="#SvgjsG12605" transform="translate(161.7, 138.6) scale(0.7)" fill="rgba(255, 255, 255, 1)"></use>
            <use xlink:href="#SvgjsG12601" transform="translate(161.7, 161.7) scale(0.7)" fill="rgba(255, 255, 255, 1)"></use>
            <use xlink:href="#SvgjsG12602" transform="translate(161.7, 184.79999999999998) scale(0.7)" fill="rgba(96, 153, 82, 1)"></use>
            <use xlink:href="#SvgjsG12614" transform="translate(161.7, 207.89999999999998) scale(0.7)" fill="rgba(70, 101, 100, 1)"></use>
            <use xlink:href="#SvgjsG12607" transform="translate(184.79999999999998, 0) scale(0.7)" fill="rgba(70, 101, 100, 1)"></use>
            <use xlink:href="#SvgjsG12605" transform="translate(184.79999999999998, 23.099999999999998) scale(0.7)" fill="rgba(70, 101, 100, 1)"></use>
            <use xlink:href="#SvgjsG12608" transform="translate(184.79999999999998, 46.199999999999996) scale(0.7)" fill="#0f457b"></use>
            <use xlink:href="#SvgjsG12615" transform="translate(184.79999999999998, 69.3) scale(0.7)" fill="rgba(255, 252, 8, 1)"></use>
            <use xlink:href="#SvgjsG12605" transform="translate(184.79999999999998, 92.39999999999999) scale(0.7)" fill="rgba(246, 195, 13, 1)"></use>
            <use xlink:href="#SvgjsG12603" transform="translate(184.79999999999998, 115.49999999999999) scale(0.7)" fill="rgba(255, 255, 255, 1)"></use>
            <use xlink:href="#SvgjsG12601" transform="translate(184.79999999999998, 138.6) scale(0.7)" fill="rgba(96, 153, 82, 1)"></use>
            <use xlink:href="#SvgjsG12612" transform="translate(184.79999999999998, 161.7) scale(0.7)" fill="rgba(70, 101, 100, 1)"></use>
            <use xlink:href="#SvgjsG12608" transform="translate(184.79999999999998, 184.79999999999998) scale(0.7)" fill="rgba(246, 195, 13, 1)"></use>
            <use xlink:href="#SvgjsG12613" transform="translate(184.79999999999998, 207.89999999999998) scale(0.7)" fill="rgba(46, 110, 76, 1)"></use>
            <use xlink:href="#SvgjsG12609" transform="translate(207.89999999999998, 0) scale(0.7)" fill="rgba(246, 195, 13, 1)"></use>
            <use xlink:href="#SvgjsG12602" transform="translate(207.89999999999998, 23.099999999999998) scale(0.7)" fill="rgba(255, 255, 255, 1)"></use>
            <use xlink:href="#SvgjsG12603" transform="translate(207.89999999999998, 46.199999999999996) scale(0.7)" fill="rgba(246, 195, 13, 1)"></use>
            <use xlink:href="#SvgjsG12601" transform="translate(207.89999999999998, 69.3) scale(0.7)" fill="rgba(70, 101, 100, 1)"></use>
            <use xlink:href="#SvgjsG12612" transform="translate(207.89999999999998, 92.39999999999999) scale(0.7)" fill="rgba(255, 255, 255, 1)"></use>
            <use xlink:href="#SvgjsG12612" transform="translate(207.89999999999998, 115.49999999999999) scale(0.7)" fill="rgba(246, 195, 13, 1)"></use>
            <use xlink:href="#SvgjsG12607" transform="translate(207.89999999999998, 138.6) scale(0.7)" fill="rgba(246, 195, 13, 1)"></use>
            <use xlink:href="#SvgjsG12604" transform="translate(207.89999999999998, 161.7) scale(0.7)" fill="rgba(46, 110, 76, 1)"></use>
            <use xlink:href="#SvgjsG12602" transform="translate(207.89999999999998, 184.79999999999998) scale(0.7)" fill="rgba(46, 110, 76, 1)"></use>
            <use xlink:href="#SvgjsG12605" transform="translate(207.89999999999998, 207.89999999999998) scale(0.7)" fill="rgba(70, 101, 100, 1)"></use>
        </g>
    </defs>
</svg>