<svg xmlns="http://www.w3.org/2000/svg" version="1.1" xmlns:xlink="http://www.w3.org/1999/xlink" xmlns:svgjs="http://svgjs.dev/svgjs" width="500" height="500" preserveAspectRatio="none" viewBox="0 0 500 500">
    <g mask="url(&quot;#SvgjsMask2394&quot;)" fill="none">
        <rect width="500" height="500" x="0" y="0" fill="rgba(0, 0, 0, 0.9)"></rect>
        <use xlink:href="#SvgjsG2413" transform="translate(0, 0)" fill="rgba(116, 145, 231, 1)"></use>
        <use xlink:href="#SvgjsG2413" transform="translate(0, 348)" fill="rgba(116, 145, 231, 1)"></use>
        <use xlink:href="#SvgjsG2413" transform="translate(348, 0)" fill="rgba(255, 0, 0, 1)"></use>
        <use xlink:href="#SvgjsG2413" transform="translate(348, 348)" fill="rgba(116, 145, 231, 1)"></use>
    </g>
    <defs>
        <mask id="SvgjsMask2394">
            <rect width="500" height="500" fill="#ffffff"></rect>
        </mask>
        <g id="SvgjsG2406">
            <path d="M3.474 10.969C3.474 7.665 8.077 0.361 8.077 0.361s4.602 7.305 4.602 10.608c0 2.247-1.506 4.771-4.602 4.771-3.095 0-4.603-2.524-4.603-4.771z" fill-rule="evenodd"></path>
        </g>
        <g id="SvgjsG2410">
            <path d="M7.713 15.485C3.459 15.485 0 12.025 0 7.768 0 3.513 3.459 0.051 7.713 0.051S15.432 3.513 15.432 7.768c0 4.257-3.465 7.716-7.719 7.717z m0-1.91c3.201 0 5.81-2.604 5.81-5.809 0-3.199-2.61-5.807-5.81-5.807-3.202 0-5.804 2.609-5.804 5.807-0.001 3.206 2.602 5.809 5.804 5.809z"></path>
            <path d="M7.753 8.787a0.574 0.574 0 0 1-0.554-0.042 0.578 0.578 0 0 1-0.259-0.399L6.931 3.862a0.58 0.58 0 0 1 1.162 0v3.478l2.975-1.4a0.578 0.578 0 0 1 0.773 0.275c0.138 0.292 0.011 0.637-0.276 0.774l-3.81 1.798z"></path>
        </g>
        <g id="SvgjsG2400">
            <path d="M11.986 8.245a46.749 46.749 0 0 1-0.521-0.411c-0.146-0.116-0.293-0.233-0.44-0.348-0.88-0.688-1.797-1.316-2.816-1.407A2.815 2.815 0 0 0 7.954 6.067c-0.086 0-0.171 0.011-0.255 0.018-1.022 0.093-1.942 0.717-2.826 1.408l0.093 0.073c0.108 0.085 0.213 0.168 0.32 0.252C6.165 7.137 7.021 6.576 7.954 6.576c0.93 0 1.784 0.558 2.66 1.236a35.098 35.098 0 0 1 0.535 0.421c0.142 0.113 0.283 0.226 0.426 0.338C12.532 9.32 13.531 10 14.658 10c0.437 0 0.854-0.104 1.257-0.273v-0.557c-0.409 0.197-0.825 0.32-1.257 0.32-0.934 0-1.792-0.563-2.672-1.245z"></path>
            <path d="M11.574 7.496c0.029 0.023 0.059 0.046 0.088 0.07 0.109 0.087 0.216 0.17 0.325 0.256 0.318-0.246 0.635-0.476 0.952-0.67v1.37c0.17 0.111 0.34 0.214 0.51 0.301V6.878c0.315-0.147 0.634-0.248 0.96-0.283v2.537c0.078 0.01 0.157 0.018 0.237 0.018 0.091 0 0.183-0.009 0.273-0.021V6.592c0.34 0.037 0.67 0.144 0.996 0.3V6.336C15.514 6.17 15.099 6.067 14.664 6.067c-1.128 0-2.13 0.68-3.09 1.429z m-7.248 1.08c-0.034-0.027-0.068-0.053-0.102-0.08-0.104-0.083-0.207-0.162-0.31-0.245-0.877 0.678-1.733 1.238-2.665 1.238C0.82 9.49 0.407 9.36 0 9.152v0.562C0.401 9.891 0.815 10 1.249 10c1.124 0 2.122-0.677 3.077-1.423z"></path>
            <path d="M0.989 9.133c0.084 0.011 0.17 0.019 0.254 0.02 0.086 0 0.171-0.008 0.256-0.02V6.592c0.329 0.035 0.65 0.136 0.967 0.285-0.002 0.012-0.007 0.023-0.007 0.036v1.903a5.818 5.818 0 0 0 0.51-0.303V7.152c0.487 0.3 0.971 0.684 1.467 1.08C5.525 9.101 6.652 10 7.948 10c1.123 0 2.121-0.675 3.078-1.42l-0.106-0.084c-0.103-0.082-0.205-0.161-0.306-0.242-0.313 0.242-0.622 0.466-0.934 0.658V7.564A5.816 5.816 0 0 0 9.17 7.261v1.893c0 0.01 0.004 0.019 0.005 0.029-0.316 0.149-0.637 0.252-0.965 0.288V6.937a1.97 1.97 0 0 0-0.267-0.02c-0.082 0-0.163 0.008-0.243 0.017v2.541c-0.33-0.035-0.652-0.136-0.969-0.283 0.002-0.013 0.006-0.024 0.006-0.039V7.248a5.629 5.629 0 0 0-0.51 0.302v1.368c-0.49-0.299-0.976-0.686-1.474-1.083C3.666 6.966 2.539 6.067 1.243 6.067c-0.432 0-0.844 0.096-1.243 0.251v0.55c0.324-0.144 0.652-0.244 0.989-0.278V9.133z"></path>
        </g>
        <g id="SvgjsG2412">
            <path d="M2.524 8.637H0.014V7.308h2.51v1.329zM3.656 4.576L1.884 2.804l0.935-0.935 1.772 1.772-0.935 0.935z m0 6.817l0.935 0.935-1.772 1.773-0.934-0.936 1.771-1.772z m4.997-8.884h-1.33V-0.002h1.33v2.511z m-1.33 10.952h1.33v2.51h-1.33v-2.509zM12.344 4.576l-0.96-0.935 1.796-1.772 0.935 0.935-1.772 1.772z m0 6.792l1.771 1.797-0.935 0.936-1.771-1.774 0.936-0.96z m3.643-4.06v1.329h-2.51V7.308h2.509z"></path>
            <path d="M3.702 7.984a4.184 4.184 0 1 0 8.368 0 4.184 4.184 0 1 0-8.368 0"></path>
        </g>
        <g id="SvgjsG2396">
            <path d="M11.555 2.354h1.45a0.35 0.35 0 0 1 0 0.7h-1.435c-0.092 0-0.184 0.03-0.253 0.099-0.107 0.111-0.134 0.268-0.072 0.398 0.053 0.115 0.126 0.234 0.206 0.333l0.826-0.004c0.061 0.004 0.13 0.019 0.187 0.05l1.944 1.041c0.16 0.099 0.271 0.278 0.271 0.482a0.569 0.569 0 0 1-0.57 0.569h-1.267L11.144 10.19l-1.09 1.091v3.987c0 0.402-0.329 0.731-0.735 0.732s-0.731-0.329-0.731-0.732V10.979H5.646l-0.662 1.007 1.627 2.832c0.199 0.352 0.073 0.8-0.28 0.998-0.352 0.199-0.8 0.073-0.998-0.279L3.664 12.674v-1.27l-0.83 1.114v2.698c0 0.406-0.329 0.731-0.735 0.73a0.731 0.731 0 0 1-0.731-0.73L1.364 12.357l0.685-1.087v-1.294L1.517 10.807a0.08 0.08 0 0 1-0.077 0.05 0.081 0.081 0 0 1-0.08-0.081v-2.881c0.027-0.566 0.501-1.037 1.071-1.037h7.206l1.145-1.76-0.95-0.946a0.142 0.142 0 0 1-0.049-0.107c0-0.084 0.065-0.149 0.145-0.149l0.693 0.004a2.742 2.742 0 0 1-0.272-1.187C10.349 1.216 11.566 0 13.066 0c0.195 0 0.352 0.157 0.352 0.352 0 0.192-0.157 0.356-0.352 0.356-1.026 0-1.875 0.773-1.99 1.768 0.142-0.08 0.302-0.123 0.479-0.123z"></path>
        </g>
        <g id="SvgjsG2408">
            <path d="M8.76 6.296L0.5 2.37v-0.78L9.032 5.68l-0.274 0.614zM5.936 10.61h3.614v3.226a0.954 0.954 0 0 0 1.91 0V10.61c0.286 0 0.314-0.188 0.314-0.406V7.8l-3.02-1.48h-6.42l-0.828-0.468a0.552 0.552 0 0 0-0.754 0.208c-0.15 0.264-0.06 0.6 0.208 0.754l1.308 0.75v6.272a0.954 0.954 0 0 0 1.91 0L4.172 11.38l1.73 2.92a0.96 0.96 0 0 0 1.312 0.334 0.966 0.966 0 0 0 0.328-1.314l-1.612-2.71z m3.114-4.946l2.72 1.292v-0.506l2.214-0.004 0.812-1.746L9.05 1.96v3.704z" fill-rule="evenodd"></path>
        </g>
        <g id="SvgjsG2409">
            <path d="M14.29 15.164c-3.385 0.048-6.924-0.597-9.632-2.773a0.082 0.082 0 0 1-0.025-0.062 0.089 0.089 0 0 1 0.089-0.089H7.396c0.124 0 0.235-0.107 0.234-0.235 0-0.098-0.044-0.165-0.149-0.217L5.067 10.64a0.16 0.16 0 0 1-0.075-0.135c0-0.044 0.018-0.084 0.044-0.112 0 0 2.94-2.599 9.254-2.542V15.164zM8.629 11.044a0.569 0.569 0 1 0 0-1.142 0.569 0.569 0 0 0 0 1.143zM13.003 2.204c-2.094 0.023-4.142 0.916-6.436 2.799l-0.274-0.075a0.661 0.661 0 0 0-0.661 0.658l0.041 0.201-1.849 1.742-1.579 1.484a0.747 0.747 0 1 1-1.004-1.102l0.208-0.119 0.076 0.548 1.286-1.636-1.419 0.48a1.205 1.205 0 0 0-0.533 0.329A1.298 1.298 0 1 0 2.613 9.422l0.015-0.014 1.493-1.422 1.909-1.806 0.263 0.067a0.658 0.658 0 0 0 0.658-0.658l-0.03-0.167c2.222-1.828 4.16-2.693 6.107-2.716 0.398-0.004 0.718 0.05 1.244 0.16l0.107 0.025V2.37l-0.071-0.014A5.467 5.467 0 0 0 13.001 2.204" fill-rule="evenodd"></path>
        </g>
        <g id="SvgjsG2407">
            <path d="M7.824 5.835l3.947-4.08-0.12 1.058 1.933 1.299a0.667 0.667 0 0 1 0.256 0.915 0.659 0.659 0 0 1-0.699 0.328l-0.16-0.032a1.733 1.733 0 0 1-2.138 1.253l-1.475 3.005L9.36 13.707a0.64 0.64 0 0 1-1.28 0V9.48H4.843l-0.579 0.995 1.211 2.898a0.64 0.64 0 0 1-1.112 0.635L2.941 10.667v-1.056l-0.634 0.994V13.707a0.64 0.64 0 0 1-1.288 0V10.123l0.533-0.827V6.48l-0.533 0.808v2.347h-1.014v-2.374c0-0.787 0.64-1.427 1.43-1.426h6.389z m4.811-0.579L11.6 5.067l-0.595 1.184a1.365 1.365 0 0 0 1.632-0.995h-0.005z" fill-rule="evenodd"></path>
        </g>
        <g id="SvgjsG2397">
            <path d="M8.541 10.856h1.001v1H8.541zM8.243 14.859H10.041v-2.002h-2.001v2.002h0.201z"></path>
            <path d="M14.225 9.282V3.277l-2.788 1.716v2.573h-1.067V4.125h-1.293V1.132h-3.432v4.899h-1.716v-1.682L2.536 3.492 1.142 4.349v3.003H0.07v7.507h3.216V9.103a1.501 1.501 0 0 1 3.004 0v1.184l-1.131 2.874h0.702v1.698h0.429v-2.127h-0.501l0.844-2.146 2.408-0.982 2.409 0.982 0.845 2.146h-0.501v2.127h0.846l2.872-0.001V9.282h-1.287z"></path>
        </g>
        <g id="SvgjsG2399">
            <path d="M5.556 4.951h4.422V3.21H5.556v1.741z m3.942 4.073l-1.067 1.295L10.284 12.579l-0.786-3.554z m-0.283-1.286L8.873 6.182H6.662l-0.341 1.552 1.448 1.777 1.447-1.774z m-3.971 4.839L7.098 10.32l-1.069-1.295-0.785 3.552z m-0.495 2.232l-0.186 0.858-1.225-0.006 2.098-9.472-1.211-0.012v-3.447L7.767 1.137l3.541 1.589v3.447l-1.212 0.015 2.095 9.469-1.222 0.006-0.186-0.853L7.767 11.136 4.749 14.807z" fill-rule="evenodd"></path>
        </g>
        <g id="SvgjsG2411">
            <path d="M7.307 2.963c-1.9 0-2.983-1.592-2.997-1.613l0.688-0.456c0.062 0.094 1.572 2.276 4.211 0.617l0.44 0.698c-0.877 0.552-1.661 0.756-2.341 0.755zM14.34 2.91h0.828c-0.046-0.811-0.488-1.495-1.242-1.926-1.098-0.627-2.686-0.609-3.952 0.044l0.377 0.734c1.028-0.531 2.301-0.556 3.166-0.063 0.348 0.199 0.768 0.57 0.823 1.211zM15.158 3.825H14.339l-0.289 8.69-4.644-3.095v3.096l-4.646-3.096v3.096l-4.646-3.096v6.4h15.442l-0.398-11.995zM4.035 15.018H0.916v-1.52h3.121v1.52z m4.647 0H5.561v-1.52h3.121v1.52z m4.645 0H10.207v-1.52h3.12v1.52z"></path>
        </g>
        <g id="SvgjsG2403">
            <path d="M2.861 5.341a3.628 3.628 0 0 0-0.678-2.495A3.632 3.632 0 0 0 0.021 1.427 3.627 3.627 0 0 0 0.698 3.923a3.629 3.629 0 0 0 2.163 1.419z m-0.354-2.73a4.106 4.106 0 0 1 0.364 0.61 4.12 4.12 0 0 1 0.363-0.61 4.035 4.035 0 0 1 0.537-0.6A3.625 3.625 0 0 0 2.878 0a3.628 3.628 0 0 0-0.893 2.023 4.082 4.082 0 0 1 0.522 0.588z m3.213-1.184a3.632 3.632 0 0 0-2.162 1.419 3.657 3.657 0 0 0-0.478 0.902 4.027 4.027 0 0 1 0.186 1.485 3.624 3.624 0 0 0 1.778-1.308 3.627 3.627 0 0 0 0.676-2.497z m4.541 0.818a1.473 1.473 0 0 0-1.473 1.473c0 0.813 0.659 1.473 1.473 1.473s1.472-0.659 1.472-1.472a1.473 1.473 0 0 0-1.474-1.472z m3.817 6.152l-0.748-2.135c-0.145-0.402-0.425-0.716-1.212-0.716H8.661c-0.787 0-1.067 0.314-1.212 0.716l-0.748 2.135c-0.057 0.138-0.085 0.448 0.219 0.655l1.76 1.161a0.558 0.558 0 0 0 0.773-0.157 0.559 0.559 0 0 0-0.159-0.775l-0.846-0.559-0.552-0.363L8.291 7.273h0.545l-0.319 0.881 1.061 0.7a1.062 1.062 0 0 1 0.459 0.678 1.065 1.065 0 0 1-0.155 0.805 1.086 1.086 0 0 1-0.227 0.245h1.469a1.081 1.081 0 0 1-0.226-0.245 1.064 1.064 0 0 1-0.156-0.804 1.06 1.06 0 0 1 0.459-0.679l1.061-0.699-0.32-0.882h0.545l0.394 1.086-0.551 0.364-0.845 0.558a0.558 0.558 0 1 0 0.614 0.931l1.762-1.161c0.305-0.208 0.275-0.517 0.219-0.656z m-0.624 3.217c0-0.748 0.606-1.353 1.353-1.353S16.162 10.866 16.162 11.614c0 0.746-0.608 1.354-1.355 1.354s-1.353-0.608-1.353-1.354zM0.303 14.327a0.302 0.302 0 0 0-0.302 0.302v0.405s-0.03 0.574 0.559 0.573H15.564c0.592 0 0.562-0.56 0.562-0.559V13.825s-0.051-0.391-0.506-0.391h-1.464c-0.501 0-0.914 0.894-1.87 0.893H0.302z"></path>
            <path d="M11.944 11.269H7.735l-1.751 0.268 0.08-1.731h-0.293l0.082 1.751-1.223 0.188 0.091-1.903h-0.296l0.089 1.92-1.665 0.255 0.087-1.913h-0.287l0.087 1.931-1.996 0.305c-0.014 0-0.027 0.003-0.042 0.005l0.084-1.798H0.493l0.082 1.815a0.741 0.741 0 0 0-0.574 0.721c0 0.411 0.331 0.743 0.74 0.743l5.755 0.001a1.053 1.053 0 0 1-0.16-0.556 1.063 1.063 0 0 1 1.063-1.063h2.305L11.572 11.817l0.103 0.497-1.92 0.4H7.397a0.556 0.556 0 0 0-0.007 1.112l4.564 0c0.705-0.006 1.272-0.575 1.272-1.277a1.28 1.28 0 0 0-1.282-1.28z"></path>
        </g>
        <g id="SvgjsG2404">
            <path d="M6.827 4.508H3.888c-0.711 0-0.711 0.924 0 0.925H6.827c0.704 0 0.704-0.924 0-0.925"></path>
            <path d="M6.827 4.508H3.888c-0.711 0-0.711 0.924 0 0.925H6.827c0.704 0 0.704-0.924 0-0.925M6.485 4.272a1.234 1.234 0 1 0 0-2.476 1.234 1.234 0 0 0 0 2.476"></path>
            <path d="M6.773 4.587H3.689c-0.747 0-0.747 0.967 0 0.967H6.773c0.741 0 0.741-0.967 0-0.967"></path>
            <path d="M12.018 4.587H8.027c0.732-0.729 2.101-2.101 2.803-2.8 0.676 0.791 1.084 1.767 1.184 2.8z m0 0.967a5.092 5.092 0 0 1-1.182 2.787c-0.622-0.615-1.76-1.76-2.525-2.524v-0.263H12.018z m-5.095 4.924v-0.041l0.003 0.022-0.003 0.023z m5.724-5.411c0-1.369-0.492-2.679-1.387-3.711 0.004-0.004-0.226-0.249-0.225-0.248L7.556 4.587l-0.061 0.057c0.011 0.018 0.027 0.027 0.036 0.044a0.681 0.681 0 0 1 0.089 0.441 0.741 0.741 0 0 1-0.066 0.267l-0.006 0.008-0.021 0.054-0.023 0.028a0.844 0.844 0 0 1-0.732 0.374h-1.698v4.533l0.003 0.009-0.96 4.814a0.693 0.693 0 1 0 1.36 0.267l0.992-4.989V10.489h0.452V10.489l0.992 4.99a0.693 0.693 0 0 0 1.36-0.267l-0.967-4.86V6.293l2.727 2.726 0.231-0.249c0.889-1.031 1.381-2.34 1.381-3.703z"></path>
        </g>
        <g id="SvgjsG2402">
            <path d="M9.232 8.281a0.793 0.793 0 0 0 1.012-0.494c0.144-0.421-0.076-0.877-0.492-1.023-0.415-0.146-0.867 0.076-1.011 0.496-0.141 0.417 0.076 0.876 0.491 1.021z"></path>
            <path d="M15.745 3.046S13.058 2.72 7.478 2.72C3.362 2.72 0 3.046 0 3.046s1.394 0.621 1.152 2.545 2.001-0.241 2.838 1.492l3.758-1.152-0.246 2.535-1.588 0.393a0.805 0.805 0 0 0-0.357 0.19L2.07 12.453c-0.206 0.197-0.21 0.529-0.012 0.734 0.195 0.208 0.523 0.216 0.726 0.019l2.626-2.557 3.213-0.795-0.023 0.006 0.536-0.137 0.491 0.565a0.406 0.406 0 0 0 0.299 0.136l1.731 0.006c0.217 0 0.397-0.179 0.397-0.403 0-0.194-0.133-0.344-0.31-0.388L10.453 5.104 15.824 3.459c0.256-0.112 0.236-0.377-0.079-0.413z m-4.389 6.576c-0.394 0-1.05-0.003-1.249-0.003-0.188-0.216-0.933-1.066-0.933-1.066-0.01-0.016-0.029-0.019-0.039-0.029-0.189-0.223-0.488-0.338-0.787-0.266l-0.466 0.116 0.249-2.56 1.968-0.602 1.257 4.41z"></path>
        </g>
        <g id="SvgjsG2395">
            <path d="M13.143 15.716v-2.374L2.833 9.897v2.376l10.31 3.443z m-7.932-5.816c-0.355-0.4-2.712-3.125-0.334-5.482C6.86 2.452 7.149 0.801 6.481 0c0 0 5.045 2.073 2.078 6.882-0.508 0.817-1.777 1.781-1.114 3.769l-2.234-0.75z m3.098 0.653c-0.109-0.403-0.592-1.282 0.884-3.03 0.789-0.931 1.085-2.312 1.157-2.832 0 0 2.613 1.498 0.013 5.165l-2.054 0.697z m0.555 0.562l4.279-1.429v2.374l-0.725 0.239-3.553-1.184zM7.113 14.499L2.833 15.925v-2.374l0.728-0.238 3.552 1.186z" fill-rule="evenodd"></path>
        </g>
        <g id="SvgjsG2405">
            <path d="M15.819 2.872L8 9.063 0.182 2.872z m0 8.863L11.116 8l4.703-3.734zM0.161 4.266l4.702 3.734L0.161 11.735z"></path>
            <path d="M10.255 8.663L8.011 10.434 5.766 8.663 0.182 13.068h15.656z"></path>
        </g>
        <g id="SvgjsG2401">
            <path d="M3.044 12.188V8.93c0-2.836 2.475-5.244 5.463-5.245 3.022-0.004 5.465 2.352 5.465 5.245v3.258h1.351V8.93C15.332 5.276 12.27 2.325 8.51 2.325 4.777 2.325 1.689 5.333 1.689 8.93v3.258h1.355z"></path>
            <path d="M5.463 14.702l-1.781 0.006V9.593h1.785c0.921 2.372 0 5.111 0 5.111m6.049-5.109H13.298V14.702l-1.783 0.006c-0.921-2.373 0-5.113 0-5.113"></path>
        </g>
        <g id="SvgjsG2398">
            <path d="M12.049 4.244l-1.49 11.735H5.527L4.041 4.244h6.146L11.403 0 12.091 0.193l-1.164 4.048 1.122 0.003z" fill-rule="evenodd"></path>
        </g>
        <g id="SvgjsG2413">
            <use xlink:href="#SvgjsG2395" transform="translate(0, 0) scale(1.2)" fill="#0f457b"></use>
            <use xlink:href="#SvgjsG2396" transform="translate(0, 34.8) scale(1.2)" fill="rgba(255, 0, 0, 1)"></use>
            <use xlink:href="#SvgjsG2396" transform="translate(0, 69.6) scale(1.2)" fill="rgba(132, 0, 0, 1)"></use>
            <use xlink:href="#SvgjsG2395" transform="translate(0, 104.39999999999999) scale(1.2)" fill="rgba(0, 24, 94, 1)"></use>
            <use xlink:href="#SvgjsG2395" transform="translate(0, 139.2) scale(1.2)" fill="rgba(56, 83, 72, 1)"></use>
            <use xlink:href="#SvgjsG2397" transform="translate(0, 174) scale(1.2)" fill="rgba(132, 0, 0, 1)"></use>
            <use xlink:href="#SvgjsG2398" transform="translate(0, 208.79999999999998) scale(1.2)" fill="rgba(15, 130, 83, 1)"></use>
            <use xlink:href="#SvgjsG2399" transform="translate(0, 243.59999999999997) scale(1.2)" fill="rgba(255, 254, 0, 1)"></use>
            <use xlink:href="#SvgjsG2399" transform="translate(0, 278.4) scale(1.2)" fill="rgba(255, 255, 255, 1)"></use>
            <use xlink:href="#SvgjsG2400" transform="translate(0, 313.2) scale(1.2)" fill="rgba(0, 24, 94, 1)"></use>
            <use xlink:href="#SvgjsG2401" transform="translate(34.8, 0) scale(1.2)" fill="rgba(255, 255, 255, 1)"></use>
            <use xlink:href="#SvgjsG2402" transform="translate(34.8, 34.8) scale(1.2)" fill="rgba(116, 145, 231, 1)"></use>
            <use xlink:href="#SvgjsG2403" transform="translate(34.8, 69.6) scale(1.2)" fill="rgba(0, 24, 94, 1)"></use>
            <use xlink:href="#SvgjsG2397" transform="translate(34.8, 104.39999999999999) scale(1.2)" fill="rgba(138, 137, 85, 1)"></use>
            <use xlink:href="#SvgjsG2404" transform="translate(34.8, 139.2) scale(1.2)" fill="rgba(0, 24, 94, 1)"></use>
            <use xlink:href="#SvgjsG2395" transform="translate(34.8, 174) scale(1.2)" fill="rgba(138, 137, 85, 1)"></use>
            <use xlink:href="#SvgjsG2401" transform="translate(34.8, 208.79999999999998) scale(1.2)" fill="rgba(255, 0, 0, 1)"></use>
            <use xlink:href="#SvgjsG2400" transform="translate(34.8, 243.59999999999997) scale(1.2)" fill="#0f457b"></use>
            <use xlink:href="#SvgjsG2405" transform="translate(34.8, 278.4) scale(1.2)" fill="rgba(255, 0, 0, 1)"></use>
            <use xlink:href="#SvgjsG2402" transform="translate(34.8, 313.2) scale(1.2)" fill="rgba(56, 83, 72, 1)"></use>
            <use xlink:href="#SvgjsG2406" transform="translate(69.6, 0) scale(1.2)" fill="rgba(56, 83, 72, 1)"></use>
            <use xlink:href="#SvgjsG2407" transform="translate(69.6, 34.8) scale(1.2)" fill="rgba(15, 130, 83, 1)"></use>
            <use xlink:href="#SvgjsG2401" transform="translate(69.6, 69.6) scale(1.2)" fill="rgba(116, 145, 231, 1)"></use>
            <use xlink:href="#SvgjsG2408" transform="translate(69.6, 104.39999999999999) scale(1.2)" fill="rgba(162, 162, 11, 1)"></use>
            <use xlink:href="#SvgjsG2401" transform="translate(69.6, 139.2) scale(1.2)" fill="rgba(15, 130, 83, 1)"></use>
            <use xlink:href="#SvgjsG2405" transform="translate(69.6, 174) scale(1.2)" fill="rgba(132, 0, 0, 1)"></use>
            <use xlink:href="#SvgjsG2398" transform="translate(69.6, 208.79999999999998) scale(1.2)" fill="rgba(255, 0, 0, 1)"></use>
            <use xlink:href="#SvgjsG2409" transform="translate(69.6, 243.59999999999997) scale(1.2)" fill="rgba(255, 254, 0, 1)"></use>
            <use xlink:href="#SvgjsG2407" transform="translate(69.6, 278.4) scale(1.2)" fill="rgba(132, 0, 0, 1)"></use>
            <use xlink:href="#SvgjsG2395" transform="translate(69.6, 313.2) scale(1.2)" fill="#0f457b"></use>
            <use xlink:href="#SvgjsG2410" transform="translate(104.39999999999999, 0) scale(1.2)" fill="#0f457b"></use>
            <use xlink:href="#SvgjsG2398" transform="translate(104.39999999999999, 34.8) scale(1.2)" fill="rgba(162, 162, 11, 1)"></use>
            <use xlink:href="#SvgjsG2406" transform="translate(104.39999999999999, 69.6) scale(1.2)" fill="rgba(255, 0, 0, 1)"></use>
            <use xlink:href="#SvgjsG2399" transform="translate(104.39999999999999, 104.39999999999999) scale(1.2)" fill="rgba(255, 0, 0, 1)"></use>
            <use xlink:href="#SvgjsG2397" transform="translate(104.39999999999999, 139.2) scale(1.2)" fill="rgba(138, 137, 85, 1)"></use>
            <use xlink:href="#SvgjsG2411" transform="translate(104.39999999999999, 174) scale(1.2)" fill="rgba(15, 130, 83, 1)"></use>
            <use xlink:href="#SvgjsG2406" transform="translate(104.39999999999999, 208.79999999999998) scale(1.2)" fill="rgba(162, 162, 11, 1)"></use>
            <use xlink:href="#SvgjsG2400" transform="translate(104.39999999999999, 243.59999999999997) scale(1.2)" fill="rgba(56, 83, 72, 1)"></use>
            <use xlink:href="#SvgjsG2396" transform="translate(104.39999999999999, 278.4) scale(1.2)" fill="rgba(255, 255, 255, 1)"></use>
            <use xlink:href="#SvgjsG2405" transform="translate(104.39999999999999, 313.2) scale(1.2)" fill="rgba(116, 145, 231, 1)"></use>
            <use xlink:href="#SvgjsG2406" transform="translate(139.2, 0) scale(1.2)" fill="rgba(116, 145, 231, 1)"></use>
            <use xlink:href="#SvgjsG2409" transform="translate(139.2, 34.8) scale(1.2)" fill="rgba(0, 24, 94, 1)"></use>
            <use xlink:href="#SvgjsG2405" transform="translate(139.2, 69.6) scale(1.2)" fill="rgba(255, 0, 0, 1)"></use>
            <use xlink:href="#SvgjsG2395" transform="translate(139.2, 104.39999999999999) scale(1.2)" fill="rgba(15, 130, 83, 1)"></use>
            <use xlink:href="#SvgjsG2404" transform="translate(139.2, 139.2) scale(1.2)" fill="rgba(255, 255, 255, 1)"></use>
            <use xlink:href="#SvgjsG2397" transform="translate(139.2, 174) scale(1.2)" fill="rgba(56, 83, 72, 1)"></use>
            <use xlink:href="#SvgjsG2401" transform="translate(139.2, 208.79999999999998) scale(1.2)" fill="rgba(15, 130, 83, 1)"></use>
            <use xlink:href="#SvgjsG2407" transform="translate(139.2, 243.59999999999997) scale(1.2)" fill="#0f457b"></use>
            <use xlink:href="#SvgjsG2398" transform="translate(139.2, 278.4) scale(1.2)" fill="rgba(162, 162, 11, 1)"></use>
            <use xlink:href="#SvgjsG2405" transform="translate(139.2, 313.2) scale(1.2)" fill="rgba(255, 0, 0, 1)"></use>
            <use xlink:href="#SvgjsG2400" transform="translate(174, 0) scale(1.2)" fill="rgba(15, 130, 83, 1)"></use>
            <use xlink:href="#SvgjsG2401" transform="translate(174, 34.8) scale(1.2)" fill="rgba(56, 83, 72, 1)"></use>
            <use xlink:href="#SvgjsG2401" transform="translate(174, 69.6) scale(1.2)" fill="rgba(255, 255, 255, 1)"></use>
            <use xlink:href="#SvgjsG2408" transform="translate(174, 104.39999999999999) scale(1.2)" fill="rgba(116, 145, 231, 1)"></use>
            <use xlink:href="#SvgjsG2401" transform="translate(174, 139.2) scale(1.2)" fill="#0f457b"></use>
            <use xlink:href="#SvgjsG2395" transform="translate(174, 174) scale(1.2)" fill="rgba(255, 0, 0, 1)"></use>
            <use xlink:href="#SvgjsG2405" transform="translate(174, 208.79999999999998) scale(1.2)" fill="rgba(0, 24, 94, 1)"></use>
            <use xlink:href="#SvgjsG2402" transform="translate(174, 243.59999999999997) scale(1.2)" fill="#0f457b"></use>
            <use xlink:href="#SvgjsG2404" transform="translate(174, 278.4) scale(1.2)" fill="rgba(255, 254, 0, 1)"></use>
            <use xlink:href="#SvgjsG2403" transform="translate(174, 313.2) scale(1.2)" fill="rgba(255, 255, 255, 1)"></use>
            <use xlink:href="#SvgjsG2410" transform="translate(208.79999999999998, 0) scale(1.2)" fill="#0f457b"></use>
            <use xlink:href="#SvgjsG2396" transform="translate(208.79999999999998, 34.8) scale(1.2)" fill="rgba(15, 130, 83, 1)"></use>
            <use xlink:href="#SvgjsG2411" transform="translate(208.79999999999998, 69.6) scale(1.2)" fill="rgba(255, 255, 255, 1)"></use>
            <use xlink:href="#SvgjsG2407" transform="translate(208.79999999999998, 104.39999999999999) scale(1.2)" fill="rgba(116, 145, 231, 1)"></use>
            <use xlink:href="#SvgjsG2406" transform="translate(208.79999999999998, 139.2) scale(1.2)" fill="rgba(255, 255, 255, 1)"></use>
            <use xlink:href="#SvgjsG2399" transform="translate(208.79999999999998, 174) scale(1.2)" fill="rgba(255, 0, 0, 1)"></use>
            <use xlink:href="#SvgjsG2397" transform="translate(208.79999999999998, 208.79999999999998) scale(1.2)" fill="rgba(116, 145, 231, 1)"></use>
            <use xlink:href="#SvgjsG2401" transform="translate(208.79999999999998, 243.59999999999997) scale(1.2)" fill="rgba(132, 0, 0, 1)"></use>
            <use xlink:href="#SvgjsG2397" transform="translate(208.79999999999998, 278.4) scale(1.2)" fill="#0f457b"></use>
            <use xlink:href="#SvgjsG2399" transform="translate(208.79999999999998, 313.2) scale(1.2)" fill="rgba(255, 0, 0, 1)"></use>
            <use xlink:href="#SvgjsG2406" transform="translate(243.59999999999997, 0) scale(1.2)" fill="rgba(116, 145, 231, 1)"></use>
            <use xlink:href="#SvgjsG2398" transform="translate(243.59999999999997, 34.8) scale(1.2)" fill="rgba(56, 83, 72, 1)"></use>
            <use xlink:href="#SvgjsG2398" transform="translate(243.59999999999997, 69.6) scale(1.2)" fill="rgba(162, 162, 11, 1)"></use>
            <use xlink:href="#SvgjsG2404" transform="translate(243.59999999999997, 104.39999999999999) scale(1.2)" fill="rgba(15, 130, 83, 1)"></use>
            <use xlink:href="#SvgjsG2398" transform="translate(243.59999999999997, 139.2) scale(1.2)" fill="rgba(116, 145, 231, 1)"></use>
            <use xlink:href="#SvgjsG2407" transform="translate(243.59999999999997, 174) scale(1.2)" fill="rgba(138, 137, 85, 1)"></use>
            <use xlink:href="#SvgjsG2396" transform="translate(243.59999999999997, 208.79999999999998) scale(1.2)" fill="rgba(56, 83, 72, 1)"></use>
            <use xlink:href="#SvgjsG2396" transform="translate(243.59999999999997, 243.59999999999997) scale(1.2)" fill="rgba(56, 83, 72, 1)"></use>
            <use xlink:href="#SvgjsG2396" transform="translate(243.59999999999997, 278.4) scale(1.2)" fill="rgba(56, 83, 72, 1)"></use>
            <use xlink:href="#SvgjsG2410" transform="translate(243.59999999999997, 313.2) scale(1.2)" fill="rgba(255, 0, 0, 1)"></use>
            <use xlink:href="#SvgjsG2406" transform="translate(278.4, 0) scale(1.2)" fill="rgba(56, 83, 72, 1)"></use>
            <use xlink:href="#SvgjsG2405" transform="translate(278.4, 34.8) scale(1.2)" fill="rgba(116, 145, 231, 1)"></use>
            <use xlink:href="#SvgjsG2410" transform="translate(278.4, 69.6) scale(1.2)" fill="rgba(255, 255, 255, 1)"></use>
            <use xlink:href="#SvgjsG2404" transform="translate(278.4, 104.39999999999999) scale(1.2)" fill="rgba(255, 0, 0, 1)"></use>
            <use xlink:href="#SvgjsG2407" transform="translate(278.4, 139.2) scale(1.2)" fill="rgba(138, 137, 85, 1)"></use>
            <use xlink:href="#SvgjsG2405" transform="translate(278.4, 174) scale(1.2)" fill="rgba(116, 145, 231, 1)"></use>
            <use xlink:href="#SvgjsG2410" transform="translate(278.4, 208.79999999999998) scale(1.2)" fill="rgba(15, 130, 83, 1)"></use>
            <use xlink:href="#SvgjsG2402" transform="translate(278.4, 243.59999999999997) scale(1.2)" fill="rgba(15, 130, 83, 1)"></use>
            <use xlink:href="#SvgjsG2403" transform="translate(278.4, 278.4) scale(1.2)" fill="rgba(132, 0, 0, 1)"></use>
            <use xlink:href="#SvgjsG2395" transform="translate(278.4, 313.2) scale(1.2)" fill="rgba(0, 24, 94, 1)"></use>
            <use xlink:href="#SvgjsG2404" transform="translate(313.2, 0) scale(1.2)" fill="rgba(15, 130, 83, 1)"></use>
            <use xlink:href="#SvgjsG2399" transform="translate(313.2, 34.8) scale(1.2)" fill="#0f457b"></use>
            <use xlink:href="#SvgjsG2395" transform="translate(313.2, 69.6) scale(1.2)" fill="#0f457b"></use>
            <use xlink:href="#SvgjsG2409" transform="translate(313.2, 104.39999999999999) scale(1.2)" fill="rgba(162, 162, 11, 1)"></use>
            <use xlink:href="#SvgjsG2412" transform="translate(313.2, 139.2) scale(1.2)" fill="rgba(56, 83, 72, 1)"></use>
            <use xlink:href="#SvgjsG2404" transform="translate(313.2, 174) scale(1.2)" fill="rgba(255, 255, 255, 1)"></use>
            <use xlink:href="#SvgjsG2398" transform="translate(313.2, 208.79999999999998) scale(1.2)" fill="rgba(138, 137, 85, 1)"></use>
            <use xlink:href="#SvgjsG2402" transform="translate(313.2, 243.59999999999997) scale(1.2)" fill="rgba(15, 130, 83, 1)"></use>
            <use xlink:href="#SvgjsG2411" transform="translate(313.2, 278.4) scale(1.2)" fill="rgba(15, 130, 83, 1)"></use>
            <use xlink:href="#SvgjsG2404" transform="translate(313.2, 313.2) scale(1.2)" fill="rgba(56, 83, 72, 1)"></use>
        </g>
    </defs>
</svg>