<svg xmlns="http://www.w3.org/2000/svg" width="1485" height="565" preserveAspectRatio="none" viewBox="0 0 1485 565">
  <g fill="none" stroke-linecap="round" mask="url(&quot;#fadeMask&quot;)"> 
    <path stroke="url(&quot;#b&quot;)" stroke-width="6" d="m1280 304-1-408" class="Up"/>
    <path stroke="url(&quot;#c&quot;)" stroke-width="8" d="m1110 264-1 342" class="Up"/>
    <path stroke="url(&quot;#d&quot;)" stroke-width="6" d="m264 380-1-199" class="Down"/>
    <path stroke="url(&quot;#e&quot;)" stroke-width="10" d="m888 158-1-267" class="Down"/>
    <path stroke="url(&quot;#f&quot;)" stroke-width="8" d="m1328 378-1 345" class="Down"/>
    <path stroke="url(&quot;#g&quot;)" stroke-width="8" d="m598 279-1 374" class="Up"/>
    <path stroke="url(&quot;#h&quot;)" stroke-width="6" d="m232 542-1-402" class="Down"/>
    <path stroke="url(&quot;#i&quot;)" stroke-width="8" d="m1327 11-1 421" class="Down"/>
    <path stroke="url(&quot;#j&quot;)" stroke-width="10" d="m621 220-1-365" class="Down"/>
    <path stroke="url(&quot;#k&quot;)" stroke-width="6" d="m903 17-1-293" class="Up"/>
    <path stroke="url(&quot;#l&quot;)" stroke-width="6" d="m1197 27-1-415" class="Up"/>
    <path stroke="url(&quot;#l&quot;)" stroke-width="10" d="m1181 231-1-269" class="Up"/>
    <path stroke="url(&quot;#m&quot;)" stroke-width="10" d="m464 79-1-260" class="Down"/>
    <path stroke="url(&quot;#n&quot;)" stroke-width="10" d="m402 65-1 151" class="Down"/>
    <path stroke="url(&quot;#b&quot;)" stroke-width="10" d="m545 447-1 266" class="Up"/>
    <path stroke="url(&quot;#c&quot;)" stroke-width="6" d="m801 465-1-413" class="Up"/>
    <path stroke="url(&quot;#c&quot;)" stroke-width="10" d="m1139 70-1 339" class="Up"/>
    <path stroke="url(&quot;#h&quot;)" stroke-width="8" d="m547 375-1-163" class="Down"/>
    <path stroke="url(&quot;#h&quot;)" stroke-width="10" d="m357 77-1 311" class="Down"/>
    <path stroke="url(&quot;#b&quot;)" stroke-width="8" d="m243 125-1-220" class="Up"/>
    <path stroke="url(&quot;#j&quot;)" stroke-width="10" d="m976 173-1 375" class="Down"/>
    <path stroke="url(&quot;#o&quot;)" stroke-width="8" d="m1453 275-1 340" class="Up"/>
    <path stroke="url(&quot;#p&quot;)" stroke-width="8" d="m583 137-1 174" class="Up"/>
    <path stroke="url(&quot;#e&quot;)" stroke-width="8" d="m521 512-1 386" class="Down"/> 
    <path stroke="url(&quot;#e&quot;)" stroke-width="10" d="m994 258-1-390" class="Down"/>
    <path stroke="url(&quot;#h&quot;)" stroke-width="8" d="m77 96-1 373" class="Down"/>
    <path stroke="url(&quot;#m&quot;)" stroke-width="6" d="m710 238-1-337" class="Down"/>
    <path stroke="url(&quot;#q&quot;)" stroke-width="8" d="m1473 224-1-397" class="Up"/>
    <path stroke="url(&quot;#r&quot;)" stroke-width="10" d="m429 387-1-342" class="Up"/>
    <path stroke="url(&quot;#s&quot;)" stroke-width="10" d="m428 314-1-191" class="Down"/>
    <path stroke="url(&quot;#o&quot;)" stroke-width="8" d="m1313 136-1 369" class="Up"/>
    <path stroke="url(&quot;#h&quot;)" stroke-width="6" d="m946 316-1-158" class="Down"/>
    <path stroke="url(&quot;#k&quot;)" stroke-width="6" d="m363 398-1-309" class="Up"/>
    <path stroke="url(&quot;#e&quot;)" stroke-width="8" d="m598 172-1 362" class="Down"/>
    <path stroke="url(&quot;#j&quot;)" stroke-width="8" d="m669 201-1 156" class="Down"/>
    <path stroke="url(&quot;#b&quot;)" stroke-width="6" d="m1147 469-1-211" class="Up"/>
    <path stroke="url(&quot;#p&quot;)" stroke-width="6" d="m225 284-1-166" class="Up"/>
    <path stroke="url(&quot;#f&quot;)" stroke-width="8" d="m911 60-1-347" class="Down"/>
  </g>
  <defs>
    <linearGradient id="verticalFade" x1="0%" y1="0%" x2="0%" y2="100%">
      <stop offset="0%" stop-color="rgba(255,255,255,0)"/>
      <stop offset="10%" stop-color="rgba(255,255,255,1)"/>
      <stop offset="90%" stop-color="rgba(255,255,255,1)"/>
      <stop offset="100%" stop-color="rgba(255,255,255,0)"/>
    </linearGradient>

    <mask id="fadeMask">
      <rect x="0" y="0" width="1485" height="565" fill="url(#verticalFade)"/>
    </mask>

    <linearGradient id="b" x1="0%" x2="0%" y1="100%" y2="0%"><stop offset="0" stop-color="rgba(207, 19, 19, 0)"/><stop offset="1" stop-color="rgba(207, 19, 19, 1)"/></linearGradient>
    <linearGradient id="c" x1="0%" x2="0%" y1="100%" y2="0%"><stop offset="0" stop-color="rgba(255, 235, 0, 0)"/><stop offset="1" stop-color="rgba(255, 235, 0, 1)"/></linearGradient>
    <linearGradient id="d" x1="0%" x2="0%" y1="0%" y2="100%"><stop offset="0" stop-color="rgba(10, 181, 61, 0)"/><stop offset="1" stop-color="rgba(10, 181, 61, 1)"/></linearGradient>
    <linearGradient id="e" x1="0%" x2="0%" y1="0%" y2="100%"><stop offset="0" stop-color="rgba(28, 83, 142, 0)"/><stop offset="1" stop-color="#1c538e"/></linearGradient>
    <linearGradient id="f" x1="0%" x2="0%" y1="0%" y2="100%"><stop offset="0" stop-color="rgba(255, 235, 0, 0)"/><stop offset="1" stop-color="rgba(255, 235, 0, 1)"/></linearGradient>
    <linearGradient id="g" x1="0%" x2="0%" y1="100%" y2="0%"><stop offset="0" stop-color="rgba(255, 0, 0, 0)"/><stop offset="1" stop-color="rgba(255, 0, 0, 1)"/></linearGradient>
    <linearGradient id="h" x1="0%" x2="0%" y1="0%" y2="100%"><stop offset="0" stop-color="rgba(207, 19, 19, 0)"/><stop offset="1" stop-color="rgba(207, 19, 19, 1)"/></linearGradient>
    <linearGradient id="i" x1="0%" x2="0%" y1="0%" y2="100%"><stop offset="0" stop-color="rgba(37, 114, 105, 0)"/><stop offset="1" stop-color="rgba(37, 114, 105, 1)"/></linearGradient>
    <linearGradient id="j" x1="0%" x2="0%" y1="0%" y2="100%"><stop offset="0" stop-color="rgba(5, 86, 252, 0)"/><stop offset="1" stop-color="rgba(5, 86, 252, 1)"/></linearGradient>
    <linearGradient id="k" x1="0%" x2="0%" y1="100%" y2="0%"><stop offset="0" stop-color="rgba(5, 86, 252, 0)"/><stop offset="1" stop-color="rgba(5, 86, 252, 1)"/></linearGradient>
    <linearGradient id="l" x1="0%" x2="0%" y1="100%" y2="0%"><stop offset="0" stop-color="rgba(10, 181, 61, 0)"/><stop offset="1" stop-color="rgba(10, 181, 61, 1)"/></linearGradient>
    <linearGradient id="m" x1="0%" x2="0%" y1="0%" y2="100%"><stop offset="0" stop-color="rgba(255, 255, 255, 0)"/><stop offset="1" stop-color="rgba(255, 255, 255, 1)"/></linearGradient>
    <linearGradient id="n" x1="0%" x2="0%" y1="0%" y2="100%"><stop offset="0" stop-color="rgba(255, 0, 0, 0)"/><stop offset="1" stop-color="rgba(255, 0, 0, 1)"/></linearGradient>
    <linearGradient id="o" x1="0%" x2="0%" y1="100%" y2="0%"><stop offset="0" stop-color="rgba(255, 255, 255, 0)"/><stop offset="1" stop-color="rgba(255, 255, 255, 1)"/></linearGradient>
    <linearGradient id="p" x1="0%" x2="0%" y1="100%" y2="0%"><stop offset="0" stop-color="rgba(37, 114, 105, 0)"/><stop offset="1" stop-color="rgba(37, 114, 105, 1)"/></linearGradient>
    <linearGradient id="q" x1="0%" x2="0%" y1="100%" y2="0%"><stop offset="0" stop-color="rgba(155, 20, 109, 0)"/><stop offset="1" stop-color="rgba(155, 20, 109, 1)"/></linearGradient>
    <linearGradient id="r" x1="0%" x2="0%" y1="100%" y2="0%"><stop offset="0" stop-color="rgba(28, 83, 142, 0)"/><stop offset="1" stop-color="#1c538e"/></linearGradient>
    <linearGradient id="s" x1="0%" x2="0%" y1="0%" y2="100%"><stop offset="0" stop-color="rgba(155, 20, 109, 0)"/><stop offset="1" stop-color="rgba(155, 20, 109, 1)"/></linearGradient>
  </defs>
</svg>