<svg xmlns="http://www.w3.org/2000/svg" version="1.1" xmlns:xlink="http://www.w3.org/1999/xlink" xmlns:svgjs="http://svgjs.dev/svgjs" width="1000" height="500" preserveAspectRatio="none" viewBox="0 0 1000 500">
  <g mask="url(&quot;#SvgjsMask1064&quot;)" fill="none">
  </g>
  <path d="M 0,327 C 13.4,288.6 40.2,140.6 67,135 C 93.8,129.4 107.2,277.6 134,299 C 160.8,320.4 174.2,224.4 201,242 C 227.8,259.6 241.2,390.8 268,387 C 294.8,383.2 308.2,207.8 335,223 C 361.8,238.2 375.2,476.8 402,463 C 428.8,449.2 442.2,163 469,154 C 495.8,145 509.2,432.6 536,418 C 562.8,403.4 576.2,66.2 603,81 C 629.8,95.8 643.2,503 670,492 C 696.8,481 710.2,57.8 737,26 C 763.8,-5.8 777.2,296.6 804,333 C 830.8,369.4 844.2,186.4 871,208 C 897.8,229.6 912.2,458.2 938,441 C 963.8,423.8 987.6,185.8 1000,122L1000 500L0 500z" fill="#2264ab"></path>
  <defs>
    <mask id="SvgjsMask1064">
      <rect width="1000" height="500" fill="#ffffff"></rect>
    </mask>
  </defs>
</svg>